<mxfile host="app.diagrams.net" modified="2021-04-20T08:10:13.524Z" agent="5.0 (Windows NT 10.0; Win64; x64) AppleWebKit/537.36 (KHTML, like Gecko) Chrome/80.0.3987.149 Safari/537.36" etag="BtzWqz7DRGnKbhEz9Q3K" version="14.6.1" type="github" pages="8">
  <diagram id="u4Q2TFSEjynHfYgfvUZc" name="第 1 页">
    <mxGraphModel dx="1662" dy="762" grid="1" gridSize="10" guides="1" tooltips="1" connect="1" arrows="1" fold="1" page="1" pageScale="1" pageWidth="827" pageHeight="1169" math="0" shadow="0">
      <root>
        <mxCell id="0" />
        <mxCell id="1" parent="0" />
        <mxCell id="WoYAhZegeuUn7T-EOOZE-1" value="&lt;p style=&quot;margin-top: 0pt ; margin-bottom: 0pt ; margin-left: 0in ; direction: ltr ; unicode-bidi: embed ; word-break: normal&quot;&gt;&lt;span style=&quot;font-size: 16pt ; font-family: &amp;#34;microsoft yahei&amp;#34;&quot;&gt;施工段钢筋三维&lt;/span&gt;&lt;/p&gt;" style="rounded=0;whiteSpace=wrap;html=1;" vertex="1" parent="1">
          <mxGeometry x="532" y="591" width="120" height="60" as="geometry" />
        </mxCell>
        <mxCell id="WoYAhZegeuUn7T-EOOZE-2" value="" style="endArrow=classic;html=1;entryX=0.5;entryY=0;entryDx=0;entryDy=0;" edge="1" parent="1" target="WoYAhZegeuUn7T-EOOZE-3">
          <mxGeometry width="50" height="50" relative="1" as="geometry">
            <mxPoint x="232.5" y="878" as="sourcePoint" />
            <mxPoint x="344.5" y="788" as="targetPoint" />
          </mxGeometry>
        </mxCell>
        <mxCell id="WoYAhZegeuUn7T-EOOZE-3" value="&lt;p style=&quot;margin-top: 0pt ; margin-bottom: 0pt ; margin-left: 0in ; direction: ltr ; unicode-bidi: embed ; word-break: normal&quot;&gt;&lt;span style=&quot;font-size: 16pt ; font-family: &amp;#34;microsoft yahei&amp;#34;&quot;&gt;体三维显示&lt;/span&gt;&lt;/p&gt;" style="rounded=0;whiteSpace=wrap;html=1;fillColor=#ffe6cc;strokeColor=#d79b00;" vertex="1" parent="1">
          <mxGeometry x="172.5" y="913" width="120" height="60" as="geometry" />
        </mxCell>
        <mxCell id="WoYAhZegeuUn7T-EOOZE-4" value="&lt;p style=&quot;margin-top: 0pt ; margin-bottom: 0pt ; margin-left: 0in ; direction: ltr ; unicode-bidi: embed ; word-break: normal&quot;&gt;&lt;span style=&quot;font-size: 16pt ; font-family: &amp;#34;microsoft yahei&amp;#34;&quot;&gt;钢筋三维显示&lt;/span&gt;&lt;/p&gt;" style="rounded=0;whiteSpace=wrap;html=1;fillColor=#ffe6cc;strokeColor=#d79b00;" vertex="1" parent="1">
          <mxGeometry x="354.5" y="913" width="120" height="60" as="geometry" />
        </mxCell>
        <mxCell id="WoYAhZegeuUn7T-EOOZE-5" value="&lt;p style=&quot;margin-top: 0pt ; margin-bottom: 0pt ; margin-left: 0in ; direction: ltr ; unicode-bidi: embed ; word-break: normal&quot;&gt;&lt;span style=&quot;font-size: 16pt ; font-family: &amp;#34;microsoft yahei&amp;#34;&quot;&gt;交互&lt;/span&gt;&lt;/p&gt;" style="rounded=0;whiteSpace=wrap;html=1;fillColor=#ffe6cc;strokeColor=#d79b00;" vertex="1" parent="1">
          <mxGeometry x="791.5" y="791" width="120" height="60" as="geometry" />
        </mxCell>
        <mxCell id="WoYAhZegeuUn7T-EOOZE-6" value="" style="endArrow=classic;html=1;fontColor=#000000;entryX=0.5;entryY=0;entryDx=0;entryDy=0;" edge="1" parent="1" target="WoYAhZegeuUn7T-EOOZE-4">
          <mxGeometry width="50" height="50" relative="1" as="geometry">
            <mxPoint x="414.5" y="878" as="sourcePoint" />
            <mxPoint x="576.5" y="708" as="targetPoint" />
          </mxGeometry>
        </mxCell>
        <mxCell id="WoYAhZegeuUn7T-EOOZE-7" value="" style="endArrow=classic;html=1;fontColor=#000000;entryX=0.5;entryY=0;entryDx=0;entryDy=0;" edge="1" parent="1" target="WoYAhZegeuUn7T-EOOZE-5">
          <mxGeometry width="50" height="50" relative="1" as="geometry">
            <mxPoint x="851.5" y="711" as="sourcePoint" />
            <mxPoint x="839" y="681" as="targetPoint" />
          </mxGeometry>
        </mxCell>
        <mxCell id="WoYAhZegeuUn7T-EOOZE-8" value="&lt;p style=&quot;margin-top: 0pt ; margin-bottom: 0pt ; margin-left: 0in ; direction: ltr ; unicode-bidi: embed ; word-break: normal&quot;&gt;&lt;span style=&quot;font-size: 16pt ; font-family: &amp;#34;microsoft yahei&amp;#34;&quot;&gt;显示模式&lt;/span&gt;&lt;/p&gt;" style="rounded=0;whiteSpace=wrap;html=1;direction=south;" vertex="1" parent="1">
          <mxGeometry x="151.5" y="1046" width="40" height="108" as="geometry" />
        </mxCell>
        <mxCell id="WoYAhZegeuUn7T-EOOZE-9" value="&lt;p style=&quot;margin-top: 0pt ; margin-bottom: 0pt ; margin-left: 0in ; direction: ltr ; unicode-bidi: embed ; word-break: normal&quot;&gt;&lt;span style=&quot;font-size: 16pt ; font-family: &amp;#34;microsoft yahei&amp;#34;&quot;&gt;显示&lt;/span&gt;&lt;/p&gt;&lt;span style=&quot;font-family: &amp;#34;microsoft yahei&amp;#34; ; font-size: 21.3333px&quot;&gt;设置&lt;/span&gt;" style="rounded=0;whiteSpace=wrap;html=1;direction=south;" vertex="1" parent="1">
          <mxGeometry x="306.5" y="1046" width="40" height="108" as="geometry" />
        </mxCell>
        <mxCell id="WoYAhZegeuUn7T-EOOZE-10" value="" style="endArrow=classic;html=1;entryX=0;entryY=0.5;entryDx=0;entryDy=0;" edge="1" parent="1" target="WoYAhZegeuUn7T-EOOZE-8">
          <mxGeometry width="50" height="50" relative="1" as="geometry">
            <mxPoint x="171.5" y="1003" as="sourcePoint" />
            <mxPoint x="-72.5" y="1083" as="targetPoint" />
          </mxGeometry>
        </mxCell>
        <mxCell id="WoYAhZegeuUn7T-EOOZE-11" value="" style="endArrow=classic;html=1;entryX=0;entryY=0.75;entryDx=0;entryDy=0;" edge="1" parent="1" target="WoYAhZegeuUn7T-EOOZE-9">
          <mxGeometry width="50" height="50" relative="1" as="geometry">
            <mxPoint x="316.5" y="1003" as="sourcePoint" />
            <mxPoint x="92.5" y="1063" as="targetPoint" />
          </mxGeometry>
        </mxCell>
        <mxCell id="WoYAhZegeuUn7T-EOOZE-12" value="" style="endArrow=classic;html=1;entryX=0;entryY=0.5;entryDx=0;entryDy=0;" edge="1" parent="1" target="WoYAhZegeuUn7T-EOOZE-16">
          <mxGeometry width="50" height="50" relative="1" as="geometry">
            <mxPoint x="883" y="879" as="sourcePoint" />
            <mxPoint x="843.5" y="921" as="targetPoint" />
          </mxGeometry>
        </mxCell>
        <mxCell id="WoYAhZegeuUn7T-EOOZE-13" value="" style="endArrow=none;html=1;fontColor=#000000;" edge="1" parent="1">
          <mxGeometry width="50" height="50" relative="1" as="geometry">
            <mxPoint x="326.5" y="711" as="sourcePoint" />
            <mxPoint x="852" y="711" as="targetPoint" />
          </mxGeometry>
        </mxCell>
        <mxCell id="WoYAhZegeuUn7T-EOOZE-14" value="" style="endArrow=none;html=1;fontColor=#000000;" edge="1" parent="1">
          <mxGeometry width="50" height="50" relative="1" as="geometry">
            <mxPoint x="317.5" y="1003" as="sourcePoint" />
            <mxPoint x="171.5" y="1003" as="targetPoint" />
          </mxGeometry>
        </mxCell>
        <mxCell id="WoYAhZegeuUn7T-EOOZE-15" value="&lt;p style=&quot;margin-top: 0pt ; margin-bottom: 0pt ; margin-left: 0in ; direction: ltr ; unicode-bidi: embed ; word-break: normal&quot;&gt;&lt;span style=&quot;font-size: 16pt ; font-family: &amp;#34;microsoft yahei&amp;#34;&quot;&gt;捕捉钢筋&lt;/span&gt;&lt;/p&gt;" style="rounded=0;whiteSpace=wrap;html=1;direction=south;" vertex="1" parent="1">
          <mxGeometry x="755" y="1077" width="40" height="110" as="geometry" />
        </mxCell>
        <mxCell id="WoYAhZegeuUn7T-EOOZE-16" value="&lt;p style=&quot;margin-top: 0pt ; margin-bottom: 0pt ; margin-left: 0in ; direction: ltr ; unicode-bidi: embed ; word-break: normal&quot;&gt;&lt;span style=&quot;font-size: 16pt ; font-family: &amp;#34;microsoft yahei&amp;#34;&quot;&gt;编辑钢筋&lt;/span&gt;&lt;/p&gt;" style="rounded=0;whiteSpace=wrap;html=1;direction=south;" vertex="1" parent="1">
          <mxGeometry x="863" y="924" width="40" height="111" as="geometry" />
        </mxCell>
        <mxCell id="WoYAhZegeuUn7T-EOOZE-17" value="" style="endArrow=none;html=1;fontColor=#000000;" edge="1" parent="1">
          <mxGeometry width="50" height="50" relative="1" as="geometry">
            <mxPoint x="481.5" y="1001" as="sourcePoint" />
            <mxPoint x="337.5" y="1001" as="targetPoint" />
          </mxGeometry>
        </mxCell>
        <mxCell id="WoYAhZegeuUn7T-EOOZE-18" value="&lt;p style=&quot;margin-top: 0pt ; margin-bottom: 0pt ; margin-left: 0in ; direction: ltr ; unicode-bidi: embed ; word-break: normal&quot;&gt;&lt;span style=&quot;font-size: 16pt ; font-family: &amp;#34;microsoft yahei&amp;#34;&quot;&gt;切换构件&lt;/span&gt;&lt;/p&gt;" style="rounded=0;whiteSpace=wrap;html=1;direction=south;" vertex="1" parent="1">
          <mxGeometry x="926" y="924" width="40" height="108" as="geometry" />
        </mxCell>
        <mxCell id="WoYAhZegeuUn7T-EOOZE-19" value="&lt;p style=&quot;margin-top: 0pt ; margin-bottom: 0pt ; margin-left: 0in ; direction: ltr ; unicode-bidi: embed ; word-break: normal&quot;&gt;&lt;span style=&quot;font-size: 16pt ; font-family: &amp;#34;microsoft yahei&amp;#34;&quot;&gt;切换楼层&lt;/span&gt;&lt;/p&gt;" style="rounded=0;whiteSpace=wrap;html=1;direction=south;" vertex="1" parent="1">
          <mxGeometry x="990" y="924" width="40" height="109" as="geometry" />
        </mxCell>
        <mxCell id="WoYAhZegeuUn7T-EOOZE-20" value="&lt;p style=&quot;margin-top: 0pt ; margin-bottom: 0pt ; margin-left: 0in ; direction: ltr ; unicode-bidi: embed ; word-break: normal&quot;&gt;&lt;span style=&quot;font-size: 16pt ; font-family: &amp;#34;microsoft yahei&amp;#34;&quot;&gt;切换区域&lt;/span&gt;&lt;/p&gt;" style="rounded=0;whiteSpace=wrap;html=1;direction=south;" vertex="1" parent="1">
          <mxGeometry x="1053.5" y="924" width="40" height="108" as="geometry" />
        </mxCell>
        <mxCell id="WoYAhZegeuUn7T-EOOZE-21" value="" style="endArrow=classic;html=1;entryX=0;entryY=0.5;entryDx=0;entryDy=0;" edge="1" parent="1">
          <mxGeometry width="50" height="50" relative="1" as="geometry">
            <mxPoint x="1075.5" y="880" as="sourcePoint" />
            <mxPoint x="1075.5" y="923" as="targetPoint" />
          </mxGeometry>
        </mxCell>
        <mxCell id="WoYAhZegeuUn7T-EOOZE-22" value="" style="endArrow=none;html=1;fontColor=#000000;verticalAlign=top;" edge="1" parent="1">
          <mxGeometry width="50" height="50" relative="1" as="geometry">
            <mxPoint x="1078" y="879" as="sourcePoint" />
            <mxPoint x="712" y="879" as="targetPoint" />
          </mxGeometry>
        </mxCell>
        <mxCell id="WoYAhZegeuUn7T-EOOZE-23" value="" style="endArrow=classic;html=1;entryX=0;entryY=0.25;entryDx=0;entryDy=0;" edge="1" parent="1" target="WoYAhZegeuUn7T-EOOZE-9">
          <mxGeometry width="50" height="50" relative="1" as="geometry">
            <mxPoint x="336.5" y="1001" as="sourcePoint" />
            <mxPoint x="287.5" y="1041" as="targetPoint" />
          </mxGeometry>
        </mxCell>
        <mxCell id="WoYAhZegeuUn7T-EOOZE-24" value="&lt;p style=&quot;margin-top: 0pt ; margin-bottom: 0pt ; margin-left: 0in ; direction: ltr ; unicode-bidi: embed ; word-break: normal&quot;&gt;&lt;span style=&quot;font-size: 16pt ; font-family: &amp;#34;microsoft yahei&amp;#34;&quot;&gt;线框&lt;/span&gt;&lt;/p&gt;" style="rounded=0;whiteSpace=wrap;html=1;direction=south;" vertex="1" parent="1">
          <mxGeometry x="54" y="1227" width="50" height="44" as="geometry" />
        </mxCell>
        <mxCell id="WoYAhZegeuUn7T-EOOZE-25" value="" style="endArrow=classic;html=1;entryX=0;entryY=0.5;entryDx=0;entryDy=0;" edge="1" parent="1" target="WoYAhZegeuUn7T-EOOZE-24">
          <mxGeometry width="50" height="50" relative="1" as="geometry">
            <mxPoint x="79" y="1179" as="sourcePoint" />
            <mxPoint x="-66" y="1259" as="targetPoint" />
          </mxGeometry>
        </mxCell>
        <mxCell id="WoYAhZegeuUn7T-EOOZE-26" value="" style="endArrow=classic;html=1;entryX=0;entryY=0.5;entryDx=0;entryDy=0;" edge="1" parent="1">
          <mxGeometry width="50" height="50" relative="1" as="geometry">
            <mxPoint x="203.82999999999993" y="1179" as="sourcePoint" />
            <mxPoint x="203.82999999999993" y="1227" as="targetPoint" />
          </mxGeometry>
        </mxCell>
        <mxCell id="WoYAhZegeuUn7T-EOOZE-27" value="" style="endArrow=none;html=1;fontColor=#000000;" edge="1" parent="1">
          <mxGeometry width="50" height="50" relative="1" as="geometry">
            <mxPoint x="262.75" y="1179" as="sourcePoint" />
            <mxPoint x="80.25" y="1179" as="targetPoint" />
          </mxGeometry>
        </mxCell>
        <mxCell id="WoYAhZegeuUn7T-EOOZE-28" value="&lt;p style=&quot;margin-top: 0pt ; margin-bottom: 0pt ; margin-left: 0in ; direction: ltr ; unicode-bidi: embed ; word-break: normal&quot;&gt;&lt;span style=&quot;font-size: 16pt ; font-family: &amp;#34;microsoft yahei&amp;#34;&quot;&gt;实体&lt;/span&gt;&lt;/p&gt;" style="rounded=0;whiteSpace=wrap;html=1;direction=south;" vertex="1" parent="1">
          <mxGeometry x="119" y="1227" width="50" height="44" as="geometry" />
        </mxCell>
        <mxCell id="WoYAhZegeuUn7T-EOOZE-29" value="&lt;p style=&quot;margin-top: 0pt ; margin-bottom: 0pt ; margin-left: 0in ; direction: ltr ; unicode-bidi: embed ; word-break: normal&quot;&gt;&lt;span style=&quot;font-size: 16pt ; font-family: &amp;#34;microsoft yahei&amp;#34;&quot;&gt;边面&lt;/span&gt;&lt;/p&gt;" style="rounded=0;whiteSpace=wrap;html=1;direction=south;" vertex="1" parent="1">
          <mxGeometry x="179" y="1227" width="50" height="44" as="geometry" />
        </mxCell>
        <mxCell id="WoYAhZegeuUn7T-EOOZE-30" value="&lt;p style=&quot;margin-top: 0pt ; margin-bottom: 0pt ; margin-left: 0in ; direction: ltr ; unicode-bidi: embed ; word-break: normal&quot;&gt;&lt;span style=&quot;font-size: 16pt ; font-family: &amp;#34;microsoft yahei&amp;#34;&quot;&gt;透明&lt;/span&gt;&lt;/p&gt;" style="rounded=0;whiteSpace=wrap;html=1;direction=south;" vertex="1" parent="1">
          <mxGeometry x="239" y="1227" width="50" height="44" as="geometry" />
        </mxCell>
        <mxCell id="WoYAhZegeuUn7T-EOOZE-31" value="" style="endArrow=classic;html=1;entryX=0;entryY=0.5;entryDx=0;entryDy=0;" edge="1" parent="1">
          <mxGeometry width="50" height="50" relative="1" as="geometry">
            <mxPoint x="143.85999999999967" y="1179" as="sourcePoint" />
            <mxPoint x="143.85999999999967" y="1227" as="targetPoint" />
          </mxGeometry>
        </mxCell>
        <mxCell id="WoYAhZegeuUn7T-EOOZE-32" value="" style="endArrow=classic;html=1;entryX=0;entryY=0.5;entryDx=0;entryDy=0;" edge="1" parent="1">
          <mxGeometry width="50" height="50" relative="1" as="geometry">
            <mxPoint x="263.8599999999997" y="1179" as="sourcePoint" />
            <mxPoint x="263.8599999999997" y="1227" as="targetPoint" />
          </mxGeometry>
        </mxCell>
        <mxCell id="WoYAhZegeuUn7T-EOOZE-33" value="" style="endArrow=none;html=1;fontColor=#000000;entryX=0.5;entryY=1;entryDx=0;entryDy=0;" edge="1" parent="1" target="WoYAhZegeuUn7T-EOOZE-3">
          <mxGeometry width="50" height="50" relative="1" as="geometry">
            <mxPoint x="232.5" y="1001" as="sourcePoint" />
            <mxPoint x="194.08" y="973" as="targetPoint" />
          </mxGeometry>
        </mxCell>
        <mxCell id="WoYAhZegeuUn7T-EOOZE-34" value="" style="endArrow=none;html=1;fontColor=#000000;entryX=1;entryY=0.5;entryDx=0;entryDy=0;" edge="1" parent="1" target="WoYAhZegeuUn7T-EOOZE-8">
          <mxGeometry width="50" height="50" relative="1" as="geometry">
            <mxPoint x="171.5" y="1179" as="sourcePoint" />
            <mxPoint x="205.5" y="1154" as="targetPoint" />
          </mxGeometry>
        </mxCell>
        <mxCell id="WoYAhZegeuUn7T-EOOZE-35" value="&lt;p style=&quot;margin-top: 0pt ; margin-bottom: 0pt ; margin-left: 0in ; direction: ltr ; unicode-bidi: embed ; word-break: normal&quot;&gt;&lt;span style=&quot;font-size: 16pt ; font-family: &amp;#34;microsoft yahei&amp;#34;&quot;&gt;采样操作&lt;/span&gt;&lt;/p&gt;" style="rounded=0;whiteSpace=wrap;html=1;direction=south;" vertex="1" parent="1">
          <mxGeometry x="692" y="1207" width="95" height="44" as="geometry" />
        </mxCell>
        <mxCell id="WoYAhZegeuUn7T-EOOZE-36" value="" style="endArrow=classic;html=1;entryX=0;entryY=0.5;entryDx=0;entryDy=0;" edge="1" parent="1" target="WoYAhZegeuUn7T-EOOZE-37">
          <mxGeometry width="50" height="50" relative="1" as="geometry">
            <mxPoint x="481.5" y="1001" as="sourcePoint" />
            <mxPoint x="480.90999999999997" y="1084" as="targetPoint" />
          </mxGeometry>
        </mxCell>
        <mxCell id="WoYAhZegeuUn7T-EOOZE-37" value="&lt;p style=&quot;margin-top: 0pt ; margin-bottom: 0pt ; margin-left: 0in ; direction: ltr ; unicode-bidi: embed ; word-break: normal&quot;&gt;&lt;font face=&quot;microsoft yahei&quot;&gt;&lt;span style=&quot;font-size: 21.3333px&quot;&gt;钢筋信息&lt;/span&gt;&lt;/font&gt;&lt;/p&gt;" style="rounded=0;whiteSpace=wrap;html=1;direction=south;" vertex="1" parent="1">
          <mxGeometry x="461.5" y="1046" width="40" height="108" as="geometry" />
        </mxCell>
        <mxCell id="WoYAhZegeuUn7T-EOOZE-38" value="&lt;p style=&quot;margin-top: 0pt ; margin-bottom: 0pt ; margin-left: 0in ; direction: ltr ; unicode-bidi: embed ; word-break: normal&quot;&gt;&lt;span style=&quot;font-size: 16pt ; font-family: &amp;#34;microsoft yahei&amp;#34;&quot;&gt;显示&lt;/span&gt;&lt;/p&gt;" style="rounded=0;whiteSpace=wrap;html=1;" vertex="1" parent="1">
          <mxGeometry x="266.5" y="791" width="120" height="60" as="geometry" />
        </mxCell>
        <mxCell id="WoYAhZegeuUn7T-EOOZE-39" value="" style="endArrow=classic;html=1;fontColor=#000000;entryX=0.5;entryY=0;entryDx=0;entryDy=0;" edge="1" parent="1">
          <mxGeometry width="50" height="50" relative="1" as="geometry">
            <mxPoint x="326.40999999999985" y="711" as="sourcePoint" />
            <mxPoint x="325.90999999999985" y="791" as="targetPoint" />
          </mxGeometry>
        </mxCell>
        <mxCell id="WoYAhZegeuUn7T-EOOZE-40" value="" style="endArrow=none;html=1;fontColor=#000000;entryX=0.5;entryY=1;entryDx=0;entryDy=0;" edge="1" parent="1">
          <mxGeometry width="50" height="50" relative="1" as="geometry">
            <mxPoint x="591" y="711" as="sourcePoint" />
            <mxPoint x="591.4099999999999" y="651" as="targetPoint" />
          </mxGeometry>
        </mxCell>
        <mxCell id="WoYAhZegeuUn7T-EOOZE-41" value="" style="endArrow=none;html=1;fontColor=#000000;" edge="1" parent="1">
          <mxGeometry width="50" height="50" relative="1" as="geometry">
            <mxPoint x="231.5" y="878" as="sourcePoint" />
            <mxPoint x="414.5" y="878" as="targetPoint" />
          </mxGeometry>
        </mxCell>
        <mxCell id="WoYAhZegeuUn7T-EOOZE-42" value="" style="endArrow=none;html=1;fontColor=#000000;entryX=0.5;entryY=1;entryDx=0;entryDy=0;" edge="1" parent="1" target="WoYAhZegeuUn7T-EOOZE-38">
          <mxGeometry width="50" height="50" relative="1" as="geometry">
            <mxPoint x="326.5" y="881" as="sourcePoint" />
            <mxPoint x="326.40999999999997" y="861" as="targetPoint" />
          </mxGeometry>
        </mxCell>
        <mxCell id="WoYAhZegeuUn7T-EOOZE-43" value="" style="endArrow=none;html=1;fontColor=#000000;entryX=0.5;entryY=1;entryDx=0;entryDy=0;" edge="1" parent="1">
          <mxGeometry width="50" height="50" relative="1" as="geometry">
            <mxPoint x="415.5" y="1001" as="sourcePoint" />
            <mxPoint x="415.5" y="972.9999999999998" as="targetPoint" />
          </mxGeometry>
        </mxCell>
        <mxCell id="WoYAhZegeuUn7T-EOOZE-44" value="&lt;p style=&quot;margin-top: 0pt ; margin-bottom: 0pt ; margin-left: 0in ; direction: ltr ; unicode-bidi: embed ; word-break: normal&quot;&gt;&lt;span style=&quot;font-size: 16pt ; font-family: &amp;#34;microsoft yahei&amp;#34;&quot;&gt;捕捉关闭按钮&lt;/span&gt;&lt;/p&gt;" style="rounded=0;whiteSpace=wrap;html=1;direction=south;" vertex="1" parent="1">
          <mxGeometry x="687" y="1077" width="50" height="107.87379999999999" as="geometry" />
        </mxCell>
        <mxCell id="WoYAhZegeuUn7T-EOOZE-45" value="" style="endArrow=classic;html=1;" edge="1" parent="1">
          <mxGeometry width="50" height="50" relative="1" as="geometry">
            <mxPoint x="1009" y="878" as="sourcePoint" />
            <mxPoint x="1009" y="923" as="targetPoint" />
          </mxGeometry>
        </mxCell>
        <mxCell id="WoYAhZegeuUn7T-EOOZE-46" value="&lt;p style=&quot;margin-top: 0pt ; margin-bottom: 0pt ; margin-left: 0in ; direction: ltr ; unicode-bidi: embed ; word-break: normal&quot;&gt;&lt;span style=&quot;font-size: 16pt ; font-family: &amp;#34;microsoft yahei&amp;#34;&quot;&gt;捕捉图元&lt;/span&gt;&lt;/p&gt;" style="rounded=0;whiteSpace=wrap;html=1;direction=south;" vertex="1" parent="1">
          <mxGeometry x="628" y="1077" width="40" height="108" as="geometry" />
        </mxCell>
        <mxCell id="WoYAhZegeuUn7T-EOOZE-47" value="" style="edgeStyle=none;rounded=0;orthogonalLoop=1;jettySize=auto;html=1;endArrow=open;endFill=0;fontSize=11;fontColor=#000000;entryX=0.036;entryY=0.5;entryDx=0;entryDy=0;entryPerimeter=0;" edge="1" parent="1" source="WoYAhZegeuUn7T-EOOZE-48" target="WoYAhZegeuUn7T-EOOZE-67">
          <mxGeometry relative="1" as="geometry">
            <mxPoint x="782" y="957" as="targetPoint" />
          </mxGeometry>
        </mxCell>
        <mxCell id="WoYAhZegeuUn7T-EOOZE-48" value="&lt;p style=&quot;margin-top: 0pt ; margin-bottom: 0pt ; margin-left: 0in ; direction: ltr ; unicode-bidi: embed ; word-break: normal&quot;&gt;&lt;span style=&quot;font-size: 16pt ; font-family: &amp;#34;microsoft yahei&amp;#34;&quot;&gt;键盘操作&lt;/span&gt;&lt;/p&gt;" style="rounded=0;whiteSpace=wrap;html=1;direction=south;" vertex="1" parent="1">
          <mxGeometry x="812" y="1077" width="40" height="108" as="geometry" />
        </mxCell>
        <mxCell id="WoYAhZegeuUn7T-EOOZE-49" value="" style="endArrow=classic;html=1;entryX=0;entryY=0.5;entryDx=0;entryDy=0;" edge="1" parent="1" target="WoYAhZegeuUn7T-EOOZE-48">
          <mxGeometry width="50" height="50" relative="1" as="geometry">
            <mxPoint x="832" y="880" as="sourcePoint" />
            <mxPoint x="821" y="925" as="targetPoint" />
          </mxGeometry>
        </mxCell>
        <mxCell id="WoYAhZegeuUn7T-EOOZE-50" value="" style="endArrow=classic;html=1;entryX=0;entryY=0.5;entryDx=0;entryDy=0;" edge="1" parent="1">
          <mxGeometry width="50" height="50" relative="1" as="geometry">
            <mxPoint x="948" y="879" as="sourcePoint" />
            <mxPoint x="948" y="924" as="targetPoint" />
          </mxGeometry>
        </mxCell>
        <mxCell id="WoYAhZegeuUn7T-EOOZE-51" value="" style="endArrow=none;html=1;fontColor=#000000;entryX=0.5;entryY=1;entryDx=0;entryDy=0;" edge="1" parent="1">
          <mxGeometry width="50" height="50" relative="1" as="geometry">
            <mxPoint x="852" y="880" as="sourcePoint" />
            <mxPoint x="852" y="852" as="targetPoint" />
          </mxGeometry>
        </mxCell>
        <mxCell id="WoYAhZegeuUn7T-EOOZE-52" value="&lt;p style=&quot;margin-top: 0pt ; margin-bottom: 0pt ; margin-left: 0in ; direction: ltr ; unicode-bidi: embed ; word-break: normal&quot;&gt;&lt;span style=&quot;font-size: 16pt ; font-family: &amp;#34;microsoft yahei&amp;#34;&quot;&gt;长度&lt;/span&gt;&lt;/p&gt;" style="rounded=0;whiteSpace=wrap;html=1;direction=south;" vertex="1" parent="1">
          <mxGeometry x="365" y="1227" width="50" height="44" as="geometry" />
        </mxCell>
        <mxCell id="WoYAhZegeuUn7T-EOOZE-53" value="" style="endArrow=classic;html=1;entryX=0;entryY=0.5;entryDx=0;entryDy=0;" edge="1" parent="1" target="WoYAhZegeuUn7T-EOOZE-52">
          <mxGeometry width="50" height="50" relative="1" as="geometry">
            <mxPoint x="390" y="1179" as="sourcePoint" />
            <mxPoint x="245" y="1259" as="targetPoint" />
          </mxGeometry>
        </mxCell>
        <mxCell id="WoYAhZegeuUn7T-EOOZE-54" value="" style="endArrow=none;html=1;fontColor=#000000;" edge="1" parent="1">
          <mxGeometry width="50" height="50" relative="1" as="geometry">
            <mxPoint x="573.75" y="1179" as="sourcePoint" />
            <mxPoint x="391.25" y="1179" as="targetPoint" />
          </mxGeometry>
        </mxCell>
        <mxCell id="WoYAhZegeuUn7T-EOOZE-55" value="&lt;p style=&quot;margin-top: 0pt ; margin-bottom: 0pt ; margin-left: 0in ; direction: ltr ; unicode-bidi: embed ; word-break: normal&quot;&gt;&lt;span style=&quot;font-size: 16pt ; font-family: &amp;#34;microsoft yahei&amp;#34;&quot;&gt;计算公式&lt;/span&gt;&lt;/p&gt;" style="rounded=0;whiteSpace=wrap;html=1;direction=south;" vertex="1" parent="1">
          <mxGeometry x="436" y="1227" width="92" height="44" as="geometry" />
        </mxCell>
        <mxCell id="WoYAhZegeuUn7T-EOOZE-56" value="" style="endArrow=classic;html=1;entryX=0;entryY=0.5;entryDx=0;entryDy=0;exitX=1;exitY=0.5;exitDx=0;exitDy=0;" edge="1" parent="1" source="WoYAhZegeuUn7T-EOOZE-37" target="WoYAhZegeuUn7T-EOOZE-55">
          <mxGeometry width="50" height="50" relative="1" as="geometry">
            <mxPoint x="482" y="1179" as="sourcePoint" />
            <mxPoint x="454.8599999999999" y="1227" as="targetPoint" />
          </mxGeometry>
        </mxCell>
        <mxCell id="WoYAhZegeuUn7T-EOOZE-57" value="" style="endArrow=classic;html=1;entryX=0;entryY=0.5;entryDx=0;entryDy=0;" edge="1" parent="1">
          <mxGeometry width="50" height="50" relative="1" as="geometry">
            <mxPoint x="574.8599999999997" y="1179" as="sourcePoint" />
            <mxPoint x="574.8599999999997" y="1227" as="targetPoint" />
          </mxGeometry>
        </mxCell>
        <mxCell id="WoYAhZegeuUn7T-EOOZE-58" value="&lt;p style=&quot;margin-top: 0pt ; margin-bottom: 0pt ; margin-left: 0in ; direction: ltr ; unicode-bidi: embed ; word-break: normal&quot;&gt;&lt;span style=&quot;font-size: 16pt ; font-family: &amp;#34;microsoft yahei&amp;#34;&quot;&gt;方向&lt;/span&gt;&lt;/p&gt;" style="rounded=0;whiteSpace=wrap;html=1;direction=south;" vertex="1" parent="1">
          <mxGeometry x="552" y="1227" width="50" height="44" as="geometry" />
        </mxCell>
        <mxCell id="WoYAhZegeuUn7T-EOOZE-59" value="" style="edgeStyle=none;rounded=0;orthogonalLoop=1;jettySize=auto;html=1;endArrow=open;endFill=0;fontSize=11;fontColor=#000000;" edge="1" parent="1" source="WoYAhZegeuUn7T-EOOZE-60" target="WoYAhZegeuUn7T-EOOZE-63">
          <mxGeometry relative="1" as="geometry" />
        </mxCell>
        <mxCell id="WoYAhZegeuUn7T-EOOZE-60" value="&lt;p style=&quot;margin-top: 0pt ; margin-bottom: 0pt ; margin-left: 0in ; direction: ltr ; unicode-bidi: embed ; word-break: normal&quot;&gt;&lt;span style=&quot;font-size: 16pt ; font-family: &amp;#34;microsoft yahei&amp;#34;&quot;&gt;鼠标操作&lt;/span&gt;&lt;/p&gt;" style="rounded=0;whiteSpace=wrap;html=1;direction=south;" vertex="1" parent="1">
          <mxGeometry x="692" y="923" width="40" height="108" as="geometry" />
        </mxCell>
        <mxCell id="WoYAhZegeuUn7T-EOOZE-61" value="" style="endArrow=classic;html=1;entryX=0;entryY=0.5;entryDx=0;entryDy=0;" edge="1" parent="1">
          <mxGeometry width="50" height="50" relative="1" as="geometry">
            <mxPoint x="712" y="879" as="sourcePoint" />
            <mxPoint x="712" y="924" as="targetPoint" />
          </mxGeometry>
        </mxCell>
        <mxCell id="WoYAhZegeuUn7T-EOOZE-62" value="" style="endArrow=classic;html=1;entryX=0;entryY=0.5;entryDx=0;entryDy=0;" edge="1" parent="1">
          <mxGeometry width="50" height="50" relative="1" as="geometry">
            <mxPoint x="712" y="1032" as="sourcePoint" />
            <mxPoint x="712" y="1077" as="targetPoint" />
          </mxGeometry>
        </mxCell>
        <mxCell id="WoYAhZegeuUn7T-EOOZE-63" value="鼠标悬浮、左键单击、左键双击、右键单击..." style="ellipse;shape=cloud;whiteSpace=wrap;html=1;rounded=0;" vertex="1" parent="1">
          <mxGeometry x="512" y="927" width="140" height="100" as="geometry" />
        </mxCell>
        <mxCell id="WoYAhZegeuUn7T-EOOZE-64" value="" style="endArrow=none;html=1;fontColor=#000000;" edge="1" parent="1">
          <mxGeometry width="50" height="50" relative="1" as="geometry">
            <mxPoint x="782" y="1047" as="sourcePoint" />
            <mxPoint x="652" y="1047" as="targetPoint" />
          </mxGeometry>
        </mxCell>
        <mxCell id="WoYAhZegeuUn7T-EOOZE-65" value="" style="endArrow=classic;html=1;" edge="1" parent="1">
          <mxGeometry width="50" height="50" relative="1" as="geometry">
            <mxPoint x="782" y="1047" as="sourcePoint" />
            <mxPoint x="782" y="1077" as="targetPoint" />
          </mxGeometry>
        </mxCell>
        <mxCell id="WoYAhZegeuUn7T-EOOZE-66" value="" style="endArrow=classic;html=1;" edge="1" parent="1">
          <mxGeometry width="50" height="50" relative="1" as="geometry">
            <mxPoint x="652" y="1047" as="sourcePoint" />
            <mxPoint x="652" y="1077" as="targetPoint" />
          </mxGeometry>
        </mxCell>
        <mxCell id="WoYAhZegeuUn7T-EOOZE-67" value="Esc、Delete..." style="ellipse;shape=cloud;whiteSpace=wrap;html=1;rounded=0;" vertex="1" parent="1">
          <mxGeometry x="912" y="1087" width="110" height="70" as="geometry" />
        </mxCell>
        <mxCell id="WoYAhZegeuUn7T-EOOZE-68" value="" style="shape=curlyBracket;whiteSpace=wrap;html=1;rounded=1;fontSize=11;fontColor=#000000;direction=north;" vertex="1" parent="1">
          <mxGeometry x="652" y="1187" width="180" height="20" as="geometry" />
        </mxCell>
        <mxCell id="WoYAhZegeuUn7T-EOOZE-69" value="&lt;p style=&quot;margin-top: 0pt ; margin-bottom: 0pt ; margin-left: 0in ; direction: ltr ; unicode-bidi: embed ; word-break: normal&quot;&gt;&lt;span style=&quot;font-size: 16pt ; font-family: &amp;#34;microsoft yahei&amp;#34;&quot;&gt;显示视角&lt;/span&gt;&lt;/p&gt;" style="rounded=0;whiteSpace=wrap;html=1;direction=south;" vertex="1" parent="1">
          <mxGeometry x="229" y="1046" width="40" height="108" as="geometry" />
        </mxCell>
        <mxCell id="WoYAhZegeuUn7T-EOOZE-70" value="" style="endArrow=classic;html=1;entryX=0;entryY=0.5;entryDx=0;entryDy=0;" edge="1" parent="1">
          <mxGeometry width="50" height="50" relative="1" as="geometry">
            <mxPoint x="248" y="1004" as="sourcePoint" />
            <mxPoint x="248" y="1047" as="targetPoint" />
          </mxGeometry>
        </mxCell>
      </root>
    </mxGraphModel>
  </diagram>
  <diagram name="核心用例" id="14EiCan-5Dopi7id-278">
    <mxGraphModel dx="1662" dy="762" grid="1" gridSize="10" guides="1" tooltips="1" connect="1" arrows="1" fold="1" page="1" pageScale="1" pageWidth="827" pageHeight="1169" math="0" shadow="0">
      <root>
        <mxCell id="2WbJC81webJ5tdVTEjwX-0" />
        <mxCell id="2WbJC81webJ5tdVTEjwX-1" parent="2WbJC81webJ5tdVTEjwX-0" />
        <mxCell id="zNABkjzV0CXIkMlUUxRQ-10" value="" style="ellipse;whiteSpace=wrap;html=1;labelBackgroundColor=none;fontSize=11;dashed=1;fillColor=none;strokeColor=#FF843D;" parent="2WbJC81webJ5tdVTEjwX-1" vertex="1">
          <mxGeometry x="110" y="310" width="482" height="205" as="geometry" />
        </mxCell>
        <mxCell id="zNABkjzV0CXIkMlUUxRQ-0" value="Actor" style="shape=umlActor;verticalLabelPosition=bottom;verticalAlign=top;html=1;" parent="2WbJC81webJ5tdVTEjwX-1" vertex="1">
          <mxGeometry x="53" y="276" width="30" height="60" as="geometry" />
        </mxCell>
        <mxCell id="zNABkjzV0CXIkMlUUxRQ-1" value="计算" style="ellipse;whiteSpace=wrap;html=1;" parent="2WbJC81webJ5tdVTEjwX-1" vertex="1">
          <mxGeometry x="136" y="270" width="140" height="70" as="geometry" />
        </mxCell>
        <mxCell id="zNABkjzV0CXIkMlUUxRQ-2" value="" style="endArrow=open;html=1;fontColor=#000000;entryX=0;entryY=0.5;entryDx=0;entryDy=0;endFill=0;" parent="2WbJC81webJ5tdVTEjwX-1" target="zNABkjzV0CXIkMlUUxRQ-1" edge="1">
          <mxGeometry width="50" height="50" relative="1" as="geometry">
            <mxPoint x="88" y="305" as="sourcePoint" />
            <mxPoint x="408" y="469" as="targetPoint" />
          </mxGeometry>
        </mxCell>
        <mxCell id="zNABkjzV0CXIkMlUUxRQ-3" value="施工段钢筋三维" style="ellipse;whiteSpace=wrap;html=1;" parent="2WbJC81webJ5tdVTEjwX-1" vertex="1">
          <mxGeometry x="134" y="391" width="140" height="70" as="geometry" />
        </mxCell>
        <mxCell id="zNABkjzV0CXIkMlUUxRQ-5" style="edgeStyle=none;rounded=0;orthogonalLoop=1;jettySize=auto;html=1;endArrow=open;endFill=0;fontSize=11;fontColor=#000000;" parent="2WbJC81webJ5tdVTEjwX-1" source="zNABkjzV0CXIkMlUUxRQ-6" edge="1">
          <mxGeometry relative="1" as="geometry">
            <mxPoint x="339" y="355" as="targetPoint" />
          </mxGeometry>
        </mxCell>
        <mxCell id="zNABkjzV0CXIkMlUUxRQ-6" value="三维显示" style="ellipse;whiteSpace=wrap;html=1;" parent="2WbJC81webJ5tdVTEjwX-1" vertex="1">
          <mxGeometry x="342" y="320" width="140" height="70" as="geometry" />
        </mxCell>
        <mxCell id="zNABkjzV0CXIkMlUUxRQ-7" value="功能交互" style="ellipse;whiteSpace=wrap;html=1;" parent="2WbJC81webJ5tdVTEjwX-1" vertex="1">
          <mxGeometry x="350" y="420" width="140" height="70" as="geometry" />
        </mxCell>
        <mxCell id="zNABkjzV0CXIkMlUUxRQ-8" value="&amp;lt;&amp;lt;extend&amp;gt;&amp;gt;" style="html=1;verticalAlign=bottom;labelBackgroundColor=none;endArrow=open;endFill=0;dashed=1;exitX=0.986;exitY=0.393;exitDx=0;exitDy=0;exitPerimeter=0;" parent="2WbJC81webJ5tdVTEjwX-1" edge="1">
          <mxGeometry width="160" relative="1" as="geometry">
            <mxPoint x="269" y="412.51" as="sourcePoint" />
            <mxPoint x="345" y="361" as="targetPoint" />
          </mxGeometry>
        </mxCell>
        <mxCell id="zNABkjzV0CXIkMlUUxRQ-9" value="&amp;lt;&amp;lt;extend&amp;gt;&amp;gt;" style="html=1;verticalAlign=bottom;labelBackgroundColor=none;endArrow=open;endFill=0;dashed=1;entryX=0;entryY=0.5;entryDx=0;entryDy=0;exitX=0.993;exitY=0.6;exitDx=0;exitDy=0;exitPerimeter=0;" parent="2WbJC81webJ5tdVTEjwX-1" source="zNABkjzV0CXIkMlUUxRQ-3" target="zNABkjzV0CXIkMlUUxRQ-7" edge="1">
          <mxGeometry width="160" relative="1" as="geometry">
            <mxPoint x="163.99999999999994" y="560.51" as="sourcePoint" />
            <mxPoint x="311.96000000000004" y="461" as="targetPoint" />
          </mxGeometry>
        </mxCell>
        <mxCell id="buIXMsQcearvZHwGr_Yx-0" value="" style="endArrow=none;html=1;exitX=0;exitY=0.5;exitDx=0;exitDy=0;" edge="1" parent="2WbJC81webJ5tdVTEjwX-1" source="zNABkjzV0CXIkMlUUxRQ-3" target="zNABkjzV0CXIkMlUUxRQ-0">
          <mxGeometry width="50" height="50" relative="1" as="geometry">
            <mxPoint x="390" y="420" as="sourcePoint" />
            <mxPoint x="440" y="370" as="targetPoint" />
          </mxGeometry>
        </mxCell>
      </root>
    </mxGraphModel>
  </diagram>
  <diagram name="三维显示用例" id="Miorz9dw39gu317I40aT">
    <mxGraphModel dx="1662" dy="762" grid="1" gridSize="10" guides="1" tooltips="1" connect="1" arrows="1" fold="1" page="1" pageScale="1" pageWidth="827" pageHeight="1169" math="0" shadow="0">
      <root>
        <mxCell id="cCGpQryHX-ZnNu7kOqij-0" />
        <mxCell id="cCGpQryHX-ZnNu7kOqij-1" parent="cCGpQryHX-ZnNu7kOqij-0" />
        <mxCell id="2IFPvEOCWGOjuf1WZUK2-0" value="三维显示" style="ellipse;whiteSpace=wrap;html=1;" parent="cCGpQryHX-ZnNu7kOqij-1" vertex="1">
          <mxGeometry x="232" y="232" width="140" height="70" as="geometry" />
        </mxCell>
        <mxCell id="2IFPvEOCWGOjuf1WZUK2-1" value="Actor" style="shape=umlActor;verticalLabelPosition=bottom;verticalAlign=top;html=1;" parent="cCGpQryHX-ZnNu7kOqij-1" vertex="1">
          <mxGeometry x="140" y="237" width="30" height="60" as="geometry" />
        </mxCell>
        <mxCell id="2IFPvEOCWGOjuf1WZUK2-2" value="" style="endArrow=open;html=1;fontColor=#000000;entryX=0;entryY=0.5;entryDx=0;entryDy=0;endFill=0;" parent="cCGpQryHX-ZnNu7kOqij-1" edge="1">
          <mxGeometry width="50" height="50" relative="1" as="geometry">
            <mxPoint x="184" y="266.5" as="sourcePoint" />
            <mxPoint x="232" y="266.5" as="targetPoint" />
          </mxGeometry>
        </mxCell>
        <mxCell id="2IFPvEOCWGOjuf1WZUK2-3" value="显示模式切换" style="ellipse;whiteSpace=wrap;html=1;" parent="cCGpQryHX-ZnNu7kOqij-1" vertex="1">
          <mxGeometry x="526" y="368" width="140" height="70" as="geometry" />
        </mxCell>
        <mxCell id="2IFPvEOCWGOjuf1WZUK2-4" value="&lt;span style=&quot;font-family: &amp;#34;helvetica&amp;#34; ; color: rgb(23 , 43 , 77)&quot;&gt;钢筋详细公式&lt;/span&gt;&lt;span style=&quot;font-family: &amp;#34;helvetica&amp;#34;&quot;&gt;显隐控制&lt;/span&gt;" style="ellipse;whiteSpace=wrap;html=1;fillColor=#ffe6cc;strokeColor=#d79b00;" parent="cCGpQryHX-ZnNu7kOqij-1" vertex="1">
          <mxGeometry x="526" y="193" width="140" height="70" as="geometry" />
        </mxCell>
        <mxCell id="2IFPvEOCWGOjuf1WZUK2-5" value="&amp;lt;&amp;lt;extend&amp;gt;&amp;gt;" style="html=1;verticalAlign=bottom;labelBackgroundColor=none;endArrow=open;endFill=0;dashed=1;entryX=0;entryY=0.5;entryDx=0;entryDy=0;exitX=1;exitY=0.5;exitDx=0;exitDy=0;" parent="cCGpQryHX-ZnNu7kOqij-1" source="2IFPvEOCWGOjuf1WZUK2-0" target="2IFPvEOCWGOjuf1WZUK2-3" edge="1">
          <mxGeometry width="160" relative="1" as="geometry">
            <mxPoint x="426" y="287" as="sourcePoint" />
            <mxPoint x="572" y="215" as="targetPoint" />
          </mxGeometry>
        </mxCell>
        <mxCell id="2IFPvEOCWGOjuf1WZUK2-6" value="&amp;lt;&amp;lt;extend&amp;gt;&amp;gt;" style="html=1;verticalAlign=bottom;labelBackgroundColor=none;endArrow=open;endFill=0;dashed=1;entryX=0;entryY=0.5;entryDx=0;entryDy=0;exitX=1;exitY=0.5;exitDx=0;exitDy=0;" parent="cCGpQryHX-ZnNu7kOqij-1" source="2IFPvEOCWGOjuf1WZUK2-0" target="2IFPvEOCWGOjuf1WZUK2-4" edge="1">
          <mxGeometry width="160" relative="1" as="geometry">
            <mxPoint x="250" y="428.5" as="sourcePoint" />
            <mxPoint x="396" y="356.5" as="targetPoint" />
          </mxGeometry>
        </mxCell>
        <mxCell id="2IFPvEOCWGOjuf1WZUK2-7" value="&lt;font color=&quot;#172b4d&quot; size=&quot;1&quot;&gt;&lt;span style=&quot;font-size: 12px&quot;&gt;图元显示设置&lt;/span&gt;&lt;/font&gt;" style="ellipse;whiteSpace=wrap;html=1;fillColor=#ffe6cc;strokeColor=#d79b00;" parent="cCGpQryHX-ZnNu7kOqij-1" vertex="1">
          <mxGeometry x="526" y="110" width="140" height="70" as="geometry" />
        </mxCell>
        <mxCell id="2IFPvEOCWGOjuf1WZUK2-8" value="&amp;lt;&amp;lt;extend&amp;gt;&amp;gt;" style="html=1;verticalAlign=bottom;labelBackgroundColor=none;endArrow=open;endFill=0;dashed=1;entryX=0;entryY=0.5;entryDx=0;entryDy=0;" parent="cCGpQryHX-ZnNu7kOqij-1" target="2IFPvEOCWGOjuf1WZUK2-7" edge="1">
          <mxGeometry width="160" relative="1" as="geometry">
            <mxPoint x="375" y="260" as="sourcePoint" />
            <mxPoint x="514" y="363.5" as="targetPoint" />
          </mxGeometry>
        </mxCell>
        <mxCell id="2IFPvEOCWGOjuf1WZUK2-9" value="视角切换" style="ellipse;whiteSpace=wrap;html=1;" parent="cCGpQryHX-ZnNu7kOqij-1" vertex="1">
          <mxGeometry x="526" y="280" width="140" height="70" as="geometry" />
        </mxCell>
        <mxCell id="2IFPvEOCWGOjuf1WZUK2-10" value="&amp;lt;&amp;lt;extend&amp;gt;&amp;gt;" style="html=1;verticalAlign=bottom;labelBackgroundColor=none;endArrow=open;endFill=0;dashed=1;exitX=1;exitY=0.5;exitDx=0;exitDy=0;entryX=0;entryY=0.5;entryDx=0;entryDy=0;" parent="cCGpQryHX-ZnNu7kOqij-1" source="2IFPvEOCWGOjuf1WZUK2-0" target="2IFPvEOCWGOjuf1WZUK2-9" edge="1">
          <mxGeometry width="160" relative="1" as="geometry">
            <mxPoint x="382" y="277" as="sourcePoint" />
            <mxPoint x="516" y="267" as="targetPoint" />
          </mxGeometry>
        </mxCell>
      </root>
    </mxGraphModel>
  </diagram>
  <diagram name="交互用例图" id="rT4OJcm2NZiW2YeVsf7l">
    <mxGraphModel dx="1662" dy="762" grid="0" gridSize="10" guides="1" tooltips="1" connect="1" arrows="1" fold="1" page="1" pageScale="1" pageWidth="827" pageHeight="1169" math="0" shadow="0">
      <root>
        <mxCell id="0" />
        <mxCell id="1" parent="0" />
        <mxCell id="7hPzm7eiGbnPpYVgdC6x-4" value="鼠标操作" style="ellipse;whiteSpace=wrap;html=1;" parent="1" vertex="1">
          <mxGeometry x="453" y="323" width="105" height="53" as="geometry" />
        </mxCell>
        <mxCell id="7hPzm7eiGbnPpYVgdC6x-11" value="" style="rounded=0;orthogonalLoop=1;jettySize=auto;html=1;endArrow=blockThin;endFill=0;exitX=0;exitY=0.5;exitDx=0;exitDy=0;" parent="1" source="BBtsXvQre1SlkGrCK-gp-3" edge="1">
          <mxGeometry relative="1" as="geometry">
            <mxPoint x="570" y="339" as="targetPoint" />
            <mxPoint x="703" y="345.5" as="sourcePoint" />
          </mxGeometry>
        </mxCell>
        <mxCell id="7hPzm7eiGbnPpYVgdC6x-13" value="捕捉关闭按钮" style="ellipse;whiteSpace=wrap;html=1;flipH=1;" parent="1" vertex="1">
          <mxGeometry x="671" y="146" width="105" height="53" as="geometry" />
        </mxCell>
        <mxCell id="7hPzm7eiGbnPpYVgdC6x-14" value="" style="rounded=0;orthogonalLoop=1;jettySize=auto;html=1;endArrow=blockThin;endFill=0;exitX=0;exitY=0.5;exitDx=0;exitDy=0;" parent="1" source="BBtsXvQre1SlkGrCK-gp-10" edge="1">
          <mxGeometry relative="1" as="geometry">
            <mxPoint x="691" y="281.5" as="sourcePoint" />
            <mxPoint x="566" y="336" as="targetPoint" />
          </mxGeometry>
        </mxCell>
        <mxCell id="7hPzm7eiGbnPpYVgdC6x-15" value="" style="rounded=0;orthogonalLoop=1;jettySize=auto;html=1;endArrow=blockThin;endFill=0;entryX=0.962;entryY=0.226;entryDx=0;entryDy=0;entryPerimeter=0;exitX=0;exitY=0.5;exitDx=0;exitDy=0;" parent="1" source="7hPzm7eiGbnPpYVgdC6x-13" target="7hPzm7eiGbnPpYVgdC6x-4" edge="1">
          <mxGeometry relative="1" as="geometry">
            <mxPoint x="706.9624473953013" y="376.054207284481" as="sourcePoint" />
            <mxPoint x="591" y="324.53" as="targetPoint" />
          </mxGeometry>
        </mxCell>
        <mxCell id="vSgCPwq8pNKqQ6DGu3SY-1" value="&amp;lt;&amp;lt;extend&amp;gt;&amp;gt;" style="html=1;verticalAlign=bottom;labelBackgroundColor=none;endArrow=open;endFill=0;dashed=1;entryX=0;entryY=0.5;entryDx=0;entryDy=0;exitX=0.95;exitY=0.257;exitDx=0;exitDy=0;exitPerimeter=0;" parent="1" source="A4Q_enw-zG9mQ0CV177m-8" target="7hPzm7eiGbnPpYVgdC6x-4" edge="1">
          <mxGeometry width="160" relative="1" as="geometry">
            <mxPoint x="261" y="292" as="sourcePoint" />
            <mxPoint x="440" y="-111.5" as="targetPoint" />
          </mxGeometry>
        </mxCell>
        <mxCell id="A4Q_enw-zG9mQ0CV177m-2" value="其他" style="ellipse;whiteSpace=wrap;html=1;flipH=1;" parent="1" vertex="1">
          <mxGeometry x="671" y="376" width="105" height="53" as="geometry" />
        </mxCell>
        <mxCell id="A4Q_enw-zG9mQ0CV177m-3" value="" style="rounded=0;orthogonalLoop=1;jettySize=auto;html=1;endArrow=blockThin;endFill=0;exitX=0;exitY=0.5;exitDx=0;exitDy=0;entryX=0.979;entryY=0.743;entryDx=0;entryDy=0;entryPerimeter=0;" parent="1" source="A4Q_enw-zG9mQ0CV177m-2" target="7hPzm7eiGbnPpYVgdC6x-4" edge="1">
          <mxGeometry relative="1" as="geometry">
            <mxPoint x="593" y="366" as="targetPoint" />
            <mxPoint x="679.04" y="409" as="sourcePoint" />
          </mxGeometry>
        </mxCell>
        <mxCell id="A4Q_enw-zG9mQ0CV177m-4" value="局部三维" style="ellipse;whiteSpace=wrap;html=1;flipH=1;" parent="1" vertex="1">
          <mxGeometry x="453" y="532" width="105" height="53" as="geometry" />
        </mxCell>
        <mxCell id="A4Q_enw-zG9mQ0CV177m-5" value="" style="rounded=0;orthogonalLoop=1;jettySize=auto;html=1;endArrow=blockThin;endFill=0;exitX=0;exitY=0.5;exitDx=0;exitDy=0;" parent="1" source="BBtsXvQre1SlkGrCK-gp-6" edge="1">
          <mxGeometry relative="1" as="geometry">
            <mxPoint x="560" y="351" as="targetPoint" />
            <mxPoint x="705" y="389" as="sourcePoint" />
          </mxGeometry>
        </mxCell>
        <mxCell id="A4Q_enw-zG9mQ0CV177m-8" value="功能交互" style="ellipse;whiteSpace=wrap;html=1;" parent="1" vertex="1">
          <mxGeometry x="143" y="488" width="105" height="53" as="geometry" />
        </mxCell>
        <mxCell id="A4Q_enw-zG9mQ0CV177m-9" value="Actor" style="shape=umlActor;verticalLabelPosition=bottom;verticalAlign=top;html=1;" parent="1" vertex="1">
          <mxGeometry x="50" y="495" width="30" height="60" as="geometry" />
        </mxCell>
        <mxCell id="A4Q_enw-zG9mQ0CV177m-10" value="" style="endArrow=open;html=1;fontColor=#000000;entryX=0;entryY=0.5;entryDx=0;entryDy=0;endFill=0;" parent="1" edge="1">
          <mxGeometry width="50" height="50" relative="1" as="geometry">
            <mxPoint x="92" y="522.5" as="sourcePoint" />
            <mxPoint x="140" y="522.5" as="targetPoint" />
          </mxGeometry>
        </mxCell>
        <mxCell id="6lE2cWIkit-X1pHelqDG-1" value="编辑钢筋" style="ellipse;whiteSpace=wrap;html=1;" parent="1" vertex="1">
          <mxGeometry x="453" y="790" width="105" height="53" as="geometry" />
        </mxCell>
        <mxCell id="-q-ywLgoMemc4iK9c0Vz-1" value="&amp;lt;&amp;lt;extend&amp;gt;&amp;gt;" style="html=1;verticalAlign=bottom;labelBackgroundColor=none;endArrow=open;endFill=0;dashed=1;entryX=0;entryY=0.5;entryDx=0;entryDy=0;" parent="1" edge="1">
          <mxGeometry width="160" relative="1" as="geometry">
            <mxPoint x="251" y="505" as="sourcePoint" />
            <mxPoint x="453" y="489.5" as="targetPoint" />
          </mxGeometry>
        </mxCell>
        <mxCell id="-q-ywLgoMemc4iK9c0Vz-2" value="&amp;lt;&amp;lt;extend&amp;gt;&amp;gt;" style="html=1;verticalAlign=bottom;labelBackgroundColor=none;endArrow=open;endFill=0;dashed=1;entryX=0;entryY=0.5;entryDx=0;entryDy=0;" parent="1" target="A4Q_enw-zG9mQ0CV177m-4" edge="1">
          <mxGeometry width="160" relative="1" as="geometry">
            <mxPoint x="254" y="517" as="sourcePoint" />
            <mxPoint x="453" y="551.5" as="targetPoint" />
          </mxGeometry>
        </mxCell>
        <mxCell id="-q-ywLgoMemc4iK9c0Vz-3" value="&amp;lt;&amp;lt;extend&amp;gt;&amp;gt;" style="html=1;verticalAlign=bottom;labelBackgroundColor=none;endArrow=open;endFill=0;dashed=1;entryX=0;entryY=0.5;entryDx=0;entryDy=0;exitX=1;exitY=1;exitDx=0;exitDy=0;" parent="1" source="A4Q_enw-zG9mQ0CV177m-8" target="6lE2cWIkit-X1pHelqDG-1" edge="1">
          <mxGeometry width="160" relative="1" as="geometry">
            <mxPoint x="248" y="540" as="sourcePoint" />
            <mxPoint x="483" y="366" as="targetPoint" />
          </mxGeometry>
        </mxCell>
        <mxCell id="-q-ywLgoMemc4iK9c0Vz-4" value="&amp;lt;&amp;lt;extend&amp;gt;&amp;gt;" style="html=1;verticalAlign=bottom;labelBackgroundColor=none;endArrow=open;endFill=0;dashed=1;entryX=0;entryY=0.5;entryDx=0;entryDy=0;exitX=0.993;exitY=0.642;exitDx=0;exitDy=0;exitPerimeter=0;" parent="1" source="A4Q_enw-zG9mQ0CV177m-8" target="-q-ywLgoMemc4iK9c0Vz-5" edge="1">
          <mxGeometry width="160" relative="1" as="geometry">
            <mxPoint x="316" y="545.99" as="sourcePoint" />
            <mxPoint x="493" y="376" as="targetPoint" />
          </mxGeometry>
        </mxCell>
        <mxCell id="-q-ywLgoMemc4iK9c0Vz-5" value="切换构件" style="ellipse;whiteSpace=wrap;html=1;" parent="1" vertex="1">
          <mxGeometry x="453" y="604" width="105" height="53" as="geometry" />
        </mxCell>
        <mxCell id="-q-ywLgoMemc4iK9c0Vz-6" value="切换楼层" style="ellipse;whiteSpace=wrap;html=1;" parent="1" vertex="1">
          <mxGeometry x="453" y="666" width="105" height="53" as="geometry" />
        </mxCell>
        <mxCell id="-q-ywLgoMemc4iK9c0Vz-9" value="&amp;lt;&amp;lt;extend&amp;gt;&amp;gt;" style="html=1;verticalAlign=bottom;labelBackgroundColor=none;endArrow=open;endFill=0;dashed=1;entryX=0;entryY=0.5;entryDx=0;entryDy=0;exitX=0.957;exitY=0.771;exitDx=0;exitDy=0;exitPerimeter=0;" parent="1" source="A4Q_enw-zG9mQ0CV177m-8" target="-q-ywLgoMemc4iK9c0Vz-6" edge="1">
          <mxGeometry width="160" relative="1" as="geometry">
            <mxPoint x="292.02" y="550.01" as="sourcePoint" />
            <mxPoint x="463" y="770" as="targetPoint" />
          </mxGeometry>
        </mxCell>
        <mxCell id="-q-ywLgoMemc4iK9c0Vz-10" value="切换区域" style="ellipse;whiteSpace=wrap;html=1;" parent="1" vertex="1">
          <mxGeometry x="453" y="728" width="105" height="53" as="geometry" />
        </mxCell>
        <mxCell id="-q-ywLgoMemc4iK9c0Vz-12" value="&amp;lt;&amp;lt;extend&amp;gt;&amp;gt;" style="html=1;verticalAlign=bottom;labelBackgroundColor=none;endArrow=open;endFill=0;dashed=1;entryX=0;entryY=0.5;entryDx=0;entryDy=0;exitX=0.922;exitY=0.78;exitDx=0;exitDy=0;exitPerimeter=0;" parent="1" source="A4Q_enw-zG9mQ0CV177m-8" target="-q-ywLgoMemc4iK9c0Vz-10" edge="1">
          <mxGeometry width="160" relative="1" as="geometry">
            <mxPoint x="245" y="535" as="sourcePoint" />
            <mxPoint x="463" y="747.5" as="targetPoint" />
          </mxGeometry>
        </mxCell>
        <mxCell id="BBtsXvQre1SlkGrCK-gp-1" value="Delete" style="ellipse;whiteSpace=wrap;html=1;" parent="1" vertex="1">
          <mxGeometry x="672" y="499" width="105" height="53" as="geometry" />
        </mxCell>
        <mxCell id="BBtsXvQre1SlkGrCK-gp-3" value="捕捉钢筋" style="ellipse;whiteSpace=wrap;html=1;" parent="1" vertex="1">
          <mxGeometry x="671" y="261" width="105" height="53" as="geometry" />
        </mxCell>
        <mxCell id="BBtsXvQre1SlkGrCK-gp-4" value="键盘操作" style="ellipse;whiteSpace=wrap;html=1;" parent="1" vertex="1">
          <mxGeometry x="453" y="465" width="105" height="53" as="geometry" />
        </mxCell>
        <mxCell id="BBtsXvQre1SlkGrCK-gp-5" value="Esc" style="ellipse;whiteSpace=wrap;html=1;flipH=1;" parent="1" vertex="1">
          <mxGeometry x="670" y="439" width="105" height="53" as="geometry" />
        </mxCell>
        <mxCell id="BBtsXvQre1SlkGrCK-gp-6" value="右键" style="ellipse;whiteSpace=wrap;html=1;flipH=1;" parent="1" vertex="1">
          <mxGeometry x="671" y="317" width="105" height="53" as="geometry" />
        </mxCell>
        <mxCell id="BBtsXvQre1SlkGrCK-gp-9" value="捕捉关闭按钮" style="ellipse;whiteSpace=wrap;html=1;flipH=1;" parent="1" vertex="1">
          <mxGeometry x="671" y="146" width="105" height="53" as="geometry" />
        </mxCell>
        <mxCell id="BBtsXvQre1SlkGrCK-gp-10" value="捕捉图元" style="ellipse;whiteSpace=wrap;html=1;" parent="1" vertex="1">
          <mxGeometry x="671" y="204" width="105" height="53" as="geometry" />
        </mxCell>
        <mxCell id="BBtsXvQre1SlkGrCK-gp-11" value="" style="rounded=0;orthogonalLoop=1;jettySize=auto;html=1;endArrow=blockThin;endFill=0;exitX=0;exitY=0.5;exitDx=0;exitDy=0;entryX=0.99;entryY=0.358;entryDx=0;entryDy=0;entryPerimeter=0;" parent="1" source="BBtsXvQre1SlkGrCK-gp-5" target="BBtsXvQre1SlkGrCK-gp-4" edge="1">
          <mxGeometry relative="1" as="geometry">
            <mxPoint x="580" y="347" as="targetPoint" />
            <mxPoint x="690" y="385.5" as="sourcePoint" />
          </mxGeometry>
        </mxCell>
        <mxCell id="BBtsXvQre1SlkGrCK-gp-12" value="" style="rounded=0;orthogonalLoop=1;jettySize=auto;html=1;endArrow=blockThin;endFill=0;exitX=0;exitY=0.5;exitDx=0;exitDy=0;entryX=1.029;entryY=0.66;entryDx=0;entryDy=0;entryPerimeter=0;" parent="1" source="BBtsXvQre1SlkGrCK-gp-1" target="BBtsXvQre1SlkGrCK-gp-4" edge="1">
          <mxGeometry relative="1" as="geometry">
            <mxPoint x="566.95" y="493.97399999999993" as="targetPoint" />
            <mxPoint x="685" y="501.5" as="sourcePoint" />
          </mxGeometry>
        </mxCell>
      </root>
    </mxGraphModel>
  </diagram>
  <diagram name="用例图旧" id="rvF_PPUvE8nQPVs6PhfU">
    <mxGraphModel dx="1408" dy="808" grid="1" gridSize="10" guides="1" tooltips="1" connect="1" arrows="1" fold="1" page="1" pageScale="1" pageWidth="827" pageHeight="1169" math="0" shadow="0">
      <root>
        <mxCell id="aXkQQF4fQ5txtcEhZVqs-0" />
        <mxCell id="aXkQQF4fQ5txtcEhZVqs-1" parent="aXkQQF4fQ5txtcEhZVqs-0" />
        <mxCell id="tDBcKCC8wsfNCCUqIVzl-0" value="Actor" style="shape=umlActor;verticalLabelPosition=bottom;verticalAlign=top;html=1;" vertex="1" parent="aXkQQF4fQ5txtcEhZVqs-1">
          <mxGeometry x="30" y="632" width="30" height="60" as="geometry" />
        </mxCell>
        <mxCell id="tDBcKCC8wsfNCCUqIVzl-1" value="对钢筋工程施工段触发" style="ellipse;whiteSpace=wrap;html=1;" vertex="1" parent="aXkQQF4fQ5txtcEhZVqs-1">
          <mxGeometry x="175" y="499" width="140" height="70" as="geometry" />
        </mxCell>
        <mxCell id="tDBcKCC8wsfNCCUqIVzl-2" value="三维显示" style="ellipse;whiteSpace=wrap;html=1;fillColor=#ffe6cc;strokeColor=#d79b00;" vertex="1" parent="aXkQQF4fQ5txtcEhZVqs-1">
          <mxGeometry x="464" y="345" width="140" height="70" as="geometry" />
        </mxCell>
        <mxCell id="tDBcKCC8wsfNCCUqIVzl-3" value="编辑钢筋" style="ellipse;whiteSpace=wrap;html=1;" vertex="1" parent="aXkQQF4fQ5txtcEhZVqs-1">
          <mxGeometry x="464" y="516" width="140" height="70" as="geometry" />
        </mxCell>
        <mxCell id="tDBcKCC8wsfNCCUqIVzl-4" value="汇总计算" style="ellipse;whiteSpace=wrap;html=1;" vertex="1" parent="aXkQQF4fQ5txtcEhZVqs-1">
          <mxGeometry x="464" y="260" width="140" height="70" as="geometry" />
        </mxCell>
        <mxCell id="tDBcKCC8wsfNCCUqIVzl-5" value="&amp;lt;&amp;lt;include&amp;gt;&amp;gt;" style="html=1;verticalAlign=bottom;labelBackgroundColor=none;endArrow=open;endFill=0;dashed=1;exitX=1;exitY=0.5;exitDx=0;exitDy=0;entryX=0;entryY=0.5;entryDx=0;entryDy=0;" edge="1" parent="aXkQQF4fQ5txtcEhZVqs-1" target="tDBcKCC8wsfNCCUqIVzl-4">
          <mxGeometry width="160" relative="1" as="geometry">
            <mxPoint x="316" y="534" as="sourcePoint" />
            <mxPoint x="346" y="630" as="targetPoint" />
          </mxGeometry>
        </mxCell>
        <mxCell id="tDBcKCC8wsfNCCUqIVzl-6" value="&amp;lt;&amp;lt;extend&amp;gt;&amp;gt;" style="html=1;verticalAlign=bottom;labelBackgroundColor=none;endArrow=open;endFill=0;dashed=1;exitX=1;exitY=0.5;exitDx=0;exitDy=0;entryX=0;entryY=0.5;entryDx=0;entryDy=0;" edge="1" parent="aXkQQF4fQ5txtcEhZVqs-1" target="tDBcKCC8wsfNCCUqIVzl-2">
          <mxGeometry width="160" relative="1" as="geometry">
            <mxPoint x="316" y="534" as="sourcePoint" />
            <mxPoint x="466" y="550" as="targetPoint" />
          </mxGeometry>
        </mxCell>
        <mxCell id="tDBcKCC8wsfNCCUqIVzl-7" value="&amp;lt;&amp;lt;extend&amp;gt;&amp;gt;" style="html=1;verticalAlign=bottom;labelBackgroundColor=none;endArrow=open;endFill=0;dashed=1;entryX=0;entryY=0.5;entryDx=0;entryDy=0;" edge="1" parent="aXkQQF4fQ5txtcEhZVqs-1" target="tDBcKCC8wsfNCCUqIVzl-3">
          <mxGeometry width="160" relative="1" as="geometry">
            <mxPoint x="316" y="540" as="sourcePoint" />
            <mxPoint x="476" y="540" as="targetPoint" />
          </mxGeometry>
        </mxCell>
        <mxCell id="tDBcKCC8wsfNCCUqIVzl-8" value="对其他构件类型触发" style="ellipse;whiteSpace=wrap;html=1;" vertex="1" parent="aXkQQF4fQ5txtcEhZVqs-1">
          <mxGeometry x="183" y="746" width="140" height="70" as="geometry" />
        </mxCell>
        <mxCell id="tDBcKCC8wsfNCCUqIVzl-9" value="" style="endArrow=none;html=1;entryX=0;entryY=0.5;entryDx=0;entryDy=0;" edge="1" parent="aXkQQF4fQ5txtcEhZVqs-1" target="tDBcKCC8wsfNCCUqIVzl-8">
          <mxGeometry width="50" height="50" relative="1" as="geometry">
            <mxPoint x="79" y="675" as="sourcePoint" />
            <mxPoint x="204" y="547" as="targetPoint" />
          </mxGeometry>
        </mxCell>
        <mxCell id="tDBcKCC8wsfNCCUqIVzl-10" value="捕捉钢筋" style="ellipse;whiteSpace=wrap;html=1;fillColor=#ffe6cc;strokeColor=#d79b00;" vertex="1" parent="aXkQQF4fQ5txtcEhZVqs-1">
          <mxGeometry x="464" y="431" width="140" height="70" as="geometry" />
        </mxCell>
        <mxCell id="tDBcKCC8wsfNCCUqIVzl-11" value="&amp;lt;&amp;lt;extend&amp;gt;&amp;gt;" style="html=1;verticalAlign=bottom;labelBackgroundColor=none;endArrow=open;endFill=0;dashed=1;entryX=0;entryY=0.5;entryDx=0;entryDy=0;" edge="1" parent="aXkQQF4fQ5txtcEhZVqs-1" target="tDBcKCC8wsfNCCUqIVzl-10">
          <mxGeometry width="160" relative="1" as="geometry">
            <mxPoint x="318" y="538" as="sourcePoint" />
            <mxPoint x="450" y="721" as="targetPoint" />
          </mxGeometry>
        </mxCell>
        <mxCell id="tDBcKCC8wsfNCCUqIVzl-12" value="" style="endArrow=none;html=1;entryX=0;entryY=0.5;entryDx=0;entryDy=0;" edge="1" parent="aXkQQF4fQ5txtcEhZVqs-1" target="tDBcKCC8wsfNCCUqIVzl-1">
          <mxGeometry width="50" height="50" relative="1" as="geometry">
            <mxPoint x="80" y="661" as="sourcePoint" />
            <mxPoint x="193" y="791" as="targetPoint" />
          </mxGeometry>
        </mxCell>
        <mxCell id="tDBcKCC8wsfNCCUqIVzl-13" value="显示模式" style="ellipse;whiteSpace=wrap;html=1;flipH=1;" vertex="1" parent="aXkQQF4fQ5txtcEhZVqs-1">
          <mxGeometry x="684" y="353" width="105" height="53" as="geometry" />
        </mxCell>
        <mxCell id="tDBcKCC8wsfNCCUqIVzl-14" value="" style="rounded=0;orthogonalLoop=1;jettySize=auto;html=1;endArrow=blockThin;endFill=0;entryX=1.021;entryY=0.643;entryDx=0;entryDy=0;entryPerimeter=0;exitX=0;exitY=0.5;exitDx=0;exitDy=0;" edge="1" parent="aXkQQF4fQ5txtcEhZVqs-1" source="tDBcKCC8wsfNCCUqIVzl-15" target="tDBcKCC8wsfNCCUqIVzl-2">
          <mxGeometry relative="1" as="geometry" />
        </mxCell>
        <mxCell id="tDBcKCC8wsfNCCUqIVzl-15" value="显示设置" style="ellipse;whiteSpace=wrap;html=1;flipH=1;" vertex="1" parent="aXkQQF4fQ5txtcEhZVqs-1">
          <mxGeometry x="684" y="416" width="105" height="53" as="geometry" />
        </mxCell>
        <mxCell id="tDBcKCC8wsfNCCUqIVzl-16" value="显示视图" style="ellipse;whiteSpace=wrap;html=1;flipH=1;" vertex="1" parent="aXkQQF4fQ5txtcEhZVqs-1">
          <mxGeometry x="684" y="290" width="105" height="53" as="geometry" />
        </mxCell>
        <mxCell id="tDBcKCC8wsfNCCUqIVzl-17" value="切换构件" style="ellipse;whiteSpace=wrap;html=1;" vertex="1" parent="aXkQQF4fQ5txtcEhZVqs-1">
          <mxGeometry x="464" y="601" width="140" height="70" as="geometry" />
        </mxCell>
        <mxCell id="tDBcKCC8wsfNCCUqIVzl-18" value="切换楼层" style="ellipse;whiteSpace=wrap;html=1;" vertex="1" parent="aXkQQF4fQ5txtcEhZVqs-1">
          <mxGeometry x="464" y="686" width="140" height="70" as="geometry" />
        </mxCell>
        <mxCell id="tDBcKCC8wsfNCCUqIVzl-19" value="&amp;lt;&amp;lt;extend&amp;gt;&amp;gt;" style="html=1;verticalAlign=bottom;labelBackgroundColor=none;endArrow=open;endFill=0;dashed=1;entryX=0;entryY=0.5;entryDx=0;entryDy=0;" edge="1" parent="aXkQQF4fQ5txtcEhZVqs-1" target="tDBcKCC8wsfNCCUqIVzl-17">
          <mxGeometry width="160" relative="1" as="geometry">
            <mxPoint x="315" y="542" as="sourcePoint" />
            <mxPoint x="474" y="561" as="targetPoint" />
          </mxGeometry>
        </mxCell>
        <mxCell id="tDBcKCC8wsfNCCUqIVzl-20" value="&amp;lt;&amp;lt;extend&amp;gt;&amp;gt;" style="html=1;verticalAlign=bottom;labelBackgroundColor=none;endArrow=open;endFill=0;dashed=1;" edge="1" parent="aXkQQF4fQ5txtcEhZVqs-1">
          <mxGeometry width="160" relative="1" as="geometry">
            <mxPoint x="317" y="550" as="sourcePoint" />
            <mxPoint x="463" y="720" as="targetPoint" />
          </mxGeometry>
        </mxCell>
        <mxCell id="tDBcKCC8wsfNCCUqIVzl-21" value="" style="rounded=0;orthogonalLoop=1;jettySize=auto;html=1;endArrow=blockThin;endFill=0;exitX=0;exitY=0.5;exitDx=0;exitDy=0;entryX=1;entryY=0.5;entryDx=0;entryDy=0;" edge="1" parent="aXkQQF4fQ5txtcEhZVqs-1" source="tDBcKCC8wsfNCCUqIVzl-24" target="tDBcKCC8wsfNCCUqIVzl-10">
          <mxGeometry relative="1" as="geometry">
            <mxPoint x="677" y="469" as="sourcePoint" />
          </mxGeometry>
        </mxCell>
        <mxCell id="tDBcKCC8wsfNCCUqIVzl-22" value="" style="rounded=0;orthogonalLoop=1;jettySize=auto;html=1;endArrow=blockThin;endFill=0;exitX=0;exitY=0.5;exitDx=0;exitDy=0;" edge="1" parent="aXkQQF4fQ5txtcEhZVqs-1" source="tDBcKCC8wsfNCCUqIVzl-13">
          <mxGeometry relative="1" as="geometry">
            <mxPoint x="711.9224473953013" y="409.554207284481" as="sourcePoint" />
            <mxPoint x="609" y="381" as="targetPoint" />
          </mxGeometry>
        </mxCell>
        <mxCell id="tDBcKCC8wsfNCCUqIVzl-23" value="" style="rounded=0;orthogonalLoop=1;jettySize=auto;html=1;endArrow=blockThin;endFill=0;entryX=1.014;entryY=0.329;entryDx=0;entryDy=0;entryPerimeter=0;exitX=0;exitY=0.5;exitDx=0;exitDy=0;" edge="1" parent="aXkQQF4fQ5txtcEhZVqs-1" source="tDBcKCC8wsfNCCUqIVzl-16" target="tDBcKCC8wsfNCCUqIVzl-2">
          <mxGeometry relative="1" as="geometry">
            <mxPoint x="721.9224473953013" y="419.554207284481" as="sourcePoint" />
            <mxPoint x="626.94" y="410.01" as="targetPoint" />
          </mxGeometry>
        </mxCell>
        <mxCell id="tDBcKCC8wsfNCCUqIVzl-24" value="查看钢筋信息" style="ellipse;whiteSpace=wrap;html=1;flipH=1;" vertex="1" parent="aXkQQF4fQ5txtcEhZVqs-1">
          <mxGeometry x="684" y="481" width="105" height="53" as="geometry" />
        </mxCell>
        <mxCell id="tDBcKCC8wsfNCCUqIVzl-25" value="" style="rounded=0;orthogonalLoop=1;jettySize=auto;html=1;endArrow=blockThin;endFill=0;exitX=0.971;exitY=0.708;exitDx=0;exitDy=0;exitPerimeter=0;" edge="1" parent="aXkQQF4fQ5txtcEhZVqs-1" source="tDBcKCC8wsfNCCUqIVzl-24">
          <mxGeometry relative="1" as="geometry">
            <mxPoint x="716" y="476" as="sourcePoint" />
            <mxPoint x="606" y="551" as="targetPoint" />
          </mxGeometry>
        </mxCell>
        <mxCell id="tDBcKCC8wsfNCCUqIVzl-26" value="修改施工段归属" style="ellipse;whiteSpace=wrap;html=1;flipH=1;" vertex="1" parent="aXkQQF4fQ5txtcEhZVqs-1">
          <mxGeometry x="684" y="545" width="105" height="53" as="geometry" />
        </mxCell>
        <mxCell id="tDBcKCC8wsfNCCUqIVzl-27" value="" style="rounded=0;orthogonalLoop=1;jettySize=auto;html=1;endArrow=blockThin;endFill=0;exitX=0;exitY=0.5;exitDx=0;exitDy=0;entryX=1;entryY=0.643;entryDx=0;entryDy=0;entryPerimeter=0;" edge="1" parent="aXkQQF4fQ5txtcEhZVqs-1" source="tDBcKCC8wsfNCCUqIVzl-26" target="tDBcKCC8wsfNCCUqIVzl-3">
          <mxGeometry relative="1" as="geometry">
            <mxPoint x="697.0450000000001" y="524.0239999999999" as="sourcePoint" />
            <mxPoint x="609" y="561" as="targetPoint" />
          </mxGeometry>
        </mxCell>
      </root>
    </mxGraphModel>
  </diagram>
  <diagram name="鲁棒图" id="_tHoUWiuZpVDXd8GlYYU">
    <mxGraphModel dx="1408" dy="808" grid="1" gridSize="10" guides="1" tooltips="1" connect="1" arrows="1" fold="1" page="1" pageScale="1" pageWidth="827" pageHeight="1169" math="0" shadow="0">
      <root>
        <mxCell id="LKieN_Epe0h2KmxBO4n6-0" />
        <mxCell id="LKieN_Epe0h2KmxBO4n6-1" parent="LKieN_Epe0h2KmxBO4n6-0" />
        <mxCell id="Sqb_s8LxEvdyysTzYh_L-0" value="Actor" style="shape=umlActor;verticalLabelPosition=bottom;verticalAlign=top;html=1;" vertex="1" parent="LKieN_Epe0h2KmxBO4n6-1">
          <mxGeometry x="6" y="370" width="30" height="60" as="geometry" />
        </mxCell>
        <mxCell id="Sqb_s8LxEvdyysTzYh_L-1" value="" style="group" vertex="1" connectable="0" parent="LKieN_Epe0h2KmxBO4n6-1">
          <mxGeometry x="136" y="451.36" width="80" height="90" as="geometry" />
        </mxCell>
        <mxCell id="Sqb_s8LxEvdyysTzYh_L-2" value="" style="shape=umlBoundary;whiteSpace=wrap;html=1;" vertex="1" parent="Sqb_s8LxEvdyysTzYh_L-1">
          <mxGeometry width="80" height="65.45454545454545" as="geometry" />
        </mxCell>
        <mxCell id="Sqb_s8LxEvdyysTzYh_L-3" value="施工段钢筋三维" style="text;html=1;align=center;verticalAlign=middle;resizable=0;points=[];autosize=1;" vertex="1" parent="Sqb_s8LxEvdyysTzYh_L-1">
          <mxGeometry y="73.63636363636364" width="100" height="20" as="geometry" />
        </mxCell>
        <mxCell id="Sqb_s8LxEvdyysTzYh_L-4" value="" style="group" vertex="1" connectable="0" parent="LKieN_Epe0h2KmxBO4n6-1">
          <mxGeometry x="725" y="270" width="75" height="93.63636363636364" as="geometry" />
        </mxCell>
        <mxCell id="Sqb_s8LxEvdyysTzYh_L-5" value="" style="ellipse;shape=umlEntity;whiteSpace=wrap;html=1;" vertex="1" parent="Sqb_s8LxEvdyysTzYh_L-4">
          <mxGeometry x="4.166666666666667" width="66.66666666666667" height="65.45454545454545" as="geometry" />
        </mxCell>
        <mxCell id="Sqb_s8LxEvdyysTzYh_L-6" value="计算结果" style="text;html=1;align=center;verticalAlign=middle;resizable=0;points=[];autosize=1;" vertex="1" parent="Sqb_s8LxEvdyysTzYh_L-4">
          <mxGeometry x="15" y="73.63636363636364" width="60" height="20" as="geometry" />
        </mxCell>
        <mxCell id="Sqb_s8LxEvdyysTzYh_L-7" value="" style="group" vertex="1" connectable="0" parent="LKieN_Epe0h2KmxBO4n6-1">
          <mxGeometry x="302" y="379.99636363636364" width="88" height="97" as="geometry" />
        </mxCell>
        <mxCell id="Sqb_s8LxEvdyysTzYh_L-8" value="" style="ellipse;shape=umlControl;whiteSpace=wrap;html=1;" vertex="1" parent="Sqb_s8LxEvdyysTzYh_L-7">
          <mxGeometry width="66" height="70" as="geometry" />
        </mxCell>
        <mxCell id="Sqb_s8LxEvdyysTzYh_L-9" value="模型三维显示处理" style="text;html=1;align=center;verticalAlign=middle;resizable=0;points=[];autosize=1;" vertex="1" parent="Sqb_s8LxEvdyysTzYh_L-7">
          <mxGeometry x="-22" y="77" width="110" height="20" as="geometry" />
        </mxCell>
        <mxCell id="Sqb_s8LxEvdyysTzYh_L-10" value="" style="group" vertex="1" connectable="0" parent="LKieN_Epe0h2KmxBO4n6-1">
          <mxGeometry x="136" y="263.36" width="80" height="93.63636363636364" as="geometry" />
        </mxCell>
        <mxCell id="Sqb_s8LxEvdyysTzYh_L-11" value="" style="shape=umlBoundary;whiteSpace=wrap;html=1;" vertex="1" parent="Sqb_s8LxEvdyysTzYh_L-10">
          <mxGeometry width="80" height="65.45454545454545" as="geometry" />
        </mxCell>
        <mxCell id="Sqb_s8LxEvdyysTzYh_L-12" value="计算" style="text;html=1;align=center;verticalAlign=middle;resizable=0;points=[];autosize=1;" vertex="1" parent="Sqb_s8LxEvdyysTzYh_L-10">
          <mxGeometry x="30" y="73.63636363636364" width="40" height="20" as="geometry" />
        </mxCell>
        <mxCell id="Sqb_s8LxEvdyysTzYh_L-13" value="" style="group" vertex="1" connectable="0" parent="LKieN_Epe0h2KmxBO4n6-1">
          <mxGeometry x="306" y="260" width="66" height="97" as="geometry" />
        </mxCell>
        <mxCell id="Sqb_s8LxEvdyysTzYh_L-14" value="" style="ellipse;shape=umlControl;whiteSpace=wrap;html=1;" vertex="1" parent="Sqb_s8LxEvdyysTzYh_L-13">
          <mxGeometry width="66" height="70" as="geometry" />
        </mxCell>
        <mxCell id="Sqb_s8LxEvdyysTzYh_L-15" value="计算器" style="text;html=1;align=center;verticalAlign=middle;resizable=0;points=[];autosize=1;" vertex="1" parent="Sqb_s8LxEvdyysTzYh_L-13">
          <mxGeometry x="8" y="77" width="50" height="20" as="geometry" />
        </mxCell>
        <mxCell id="Sqb_s8LxEvdyysTzYh_L-16" value="" style="endArrow=open;endFill=1;endSize=12;html=1;exitX=0.988;exitY=0.55;exitDx=0;exitDy=0;exitPerimeter=0;" edge="1" parent="LKieN_Epe0h2KmxBO4n6-1" source="Sqb_s8LxEvdyysTzYh_L-11">
          <mxGeometry width="160" relative="1" as="geometry">
            <mxPoint x="216" y="288.36" as="sourcePoint" />
            <mxPoint x="306" y="298.3600000000001" as="targetPoint" />
          </mxGeometry>
        </mxCell>
        <mxCell id="Sqb_s8LxEvdyysTzYh_L-17" value="" style="endArrow=open;endFill=1;endSize=12;html=1;exitX=0.988;exitY=0.55;exitDx=0;exitDy=0;exitPerimeter=0;" edge="1" parent="LKieN_Epe0h2KmxBO4n6-1">
          <mxGeometry width="160" relative="1" as="geometry">
            <mxPoint x="372" y="298.8600000000001" as="sourcePoint" />
            <mxPoint x="730" y="298" as="targetPoint" />
          </mxGeometry>
        </mxCell>
        <mxCell id="Sqb_s8LxEvdyysTzYh_L-18" value="" style="endArrow=open;endFill=1;endSize=12;html=1;entryX=0;entryY=0.504;entryDx=0;entryDy=0;entryPerimeter=0;" edge="1" parent="LKieN_Epe0h2KmxBO4n6-1" target="Sqb_s8LxEvdyysTzYh_L-11">
          <mxGeometry width="160" relative="1" as="geometry">
            <mxPoint x="46" y="390" as="sourcePoint" />
            <mxPoint x="146" y="348.36" as="targetPoint" />
          </mxGeometry>
        </mxCell>
        <mxCell id="Sqb_s8LxEvdyysTzYh_L-19" value="" style="endArrow=open;endFill=1;endSize=12;html=1;" edge="1" parent="LKieN_Epe0h2KmxBO4n6-1" source="Sqb_s8LxEvdyysTzYh_L-0">
          <mxGeometry width="160" relative="1" as="geometry">
            <mxPoint x="-34" y="448.36" as="sourcePoint" />
            <mxPoint x="136" y="480.3600000000001" as="targetPoint" />
          </mxGeometry>
        </mxCell>
        <mxCell id="Sqb_s8LxEvdyysTzYh_L-20" value="" style="endArrow=open;endFill=1;endSize=12;html=1;" edge="1" parent="LKieN_Epe0h2KmxBO4n6-1">
          <mxGeometry width="160" relative="1" as="geometry">
            <mxPoint x="730" y="350" as="sourcePoint" />
            <mxPoint x="380" y="550" as="targetPoint" />
          </mxGeometry>
        </mxCell>
        <mxCell id="Sqb_s8LxEvdyysTzYh_L-21" value="" style="endArrow=open;endFill=1;endSize=12;html=1;entryX=0.015;entryY=0.471;entryDx=0;entryDy=0;entryPerimeter=0;" edge="1" parent="LKieN_Epe0h2KmxBO4n6-1" target="Sqb_s8LxEvdyysTzYh_L-8">
          <mxGeometry width="160" relative="1" as="geometry">
            <mxPoint x="216" y="483.3600000000001" as="sourcePoint" />
            <mxPoint x="306" y="483.36" as="targetPoint" />
          </mxGeometry>
        </mxCell>
        <mxCell id="Sqb_s8LxEvdyysTzYh_L-22" value="" style="group" vertex="1" connectable="0" parent="LKieN_Epe0h2KmxBO4n6-1">
          <mxGeometry x="446" y="383.36" width="75" height="93.63636363636364" as="geometry" />
        </mxCell>
        <mxCell id="Sqb_s8LxEvdyysTzYh_L-23" value="" style="ellipse;shape=umlEntity;whiteSpace=wrap;html=1;" vertex="1" parent="Sqb_s8LxEvdyysTzYh_L-22">
          <mxGeometry width="66.66666666666667" height="65.45454545454545" as="geometry" />
        </mxCell>
        <mxCell id="Sqb_s8LxEvdyysTzYh_L-24" value="模型显示节点" style="text;html=1;align=center;verticalAlign=middle;resizable=0;points=[];autosize=1;" vertex="1" parent="Sqb_s8LxEvdyysTzYh_L-22">
          <mxGeometry x="-15" y="73.63636363636364" width="90" height="20" as="geometry" />
        </mxCell>
        <mxCell id="Sqb_s8LxEvdyysTzYh_L-25" value="" style="endArrow=open;endFill=1;endSize=12;html=1;" edge="1" parent="LKieN_Epe0h2KmxBO4n6-1" target="Sqb_s8LxEvdyysTzYh_L-23">
          <mxGeometry width="160" relative="1" as="geometry">
            <mxPoint x="369" y="417.3600000000001" as="sourcePoint" />
            <mxPoint x="928" y="777.36" as="targetPoint" />
          </mxGeometry>
        </mxCell>
        <mxCell id="Sqb_s8LxEvdyysTzYh_L-26" value="" style="group" vertex="1" connectable="0" parent="LKieN_Epe0h2KmxBO4n6-1">
          <mxGeometry x="296" y="638.36" width="80" height="93.63636363636364" as="geometry" />
        </mxCell>
        <mxCell id="Sqb_s8LxEvdyysTzYh_L-27" value="" style="shape=umlBoundary;whiteSpace=wrap;html=1;" vertex="1" parent="Sqb_s8LxEvdyysTzYh_L-26">
          <mxGeometry width="80" height="65.45454545454545" as="geometry" />
        </mxCell>
        <mxCell id="Sqb_s8LxEvdyysTzYh_L-28" value="编辑钢筋" style="text;html=1;align=center;verticalAlign=middle;resizable=0;points=[];autosize=1;" vertex="1" parent="Sqb_s8LxEvdyysTzYh_L-26">
          <mxGeometry x="20" y="73.63636363636364" width="60" height="20" as="geometry" />
        </mxCell>
        <mxCell id="Sqb_s8LxEvdyysTzYh_L-29" value="" style="endArrow=open;endFill=1;endSize=12;html=1;entryX=-0.012;entryY=0.489;entryDx=0;entryDy=0;entryPerimeter=0;" edge="1" parent="LKieN_Epe0h2KmxBO4n6-1" target="Sqb_s8LxEvdyysTzYh_L-27">
          <mxGeometry width="160" relative="1" as="geometry">
            <mxPoint x="210" y="548.3600000000001" as="sourcePoint" />
            <mxPoint x="216" y="628.36" as="targetPoint" />
          </mxGeometry>
        </mxCell>
        <mxCell id="Sqb_s8LxEvdyysTzYh_L-30" value="" style="group" vertex="1" connectable="0" parent="LKieN_Epe0h2KmxBO4n6-1">
          <mxGeometry x="542" y="644.9963636363636" width="78" height="97" as="geometry" />
        </mxCell>
        <mxCell id="Sqb_s8LxEvdyysTzYh_L-31" value="" style="ellipse;shape=umlControl;whiteSpace=wrap;html=1;" vertex="1" parent="Sqb_s8LxEvdyysTzYh_L-30">
          <mxGeometry width="66" height="70" as="geometry" />
        </mxCell>
        <mxCell id="Sqb_s8LxEvdyysTzYh_L-32" value="钢筋信息处理" style="text;html=1;align=center;verticalAlign=middle;resizable=0;points=[];autosize=1;" vertex="1" parent="Sqb_s8LxEvdyysTzYh_L-30">
          <mxGeometry x="-12" y="77" width="90" height="20" as="geometry" />
        </mxCell>
        <mxCell id="Sqb_s8LxEvdyysTzYh_L-33" value="" style="endArrow=open;endFill=1;endSize=12;html=1;" edge="1" parent="Sqb_s8LxEvdyysTzYh_L-30" target="Sqb_s8LxEvdyysTzYh_L-35">
          <mxGeometry width="160" relative="1" as="geometry">
            <mxPoint x="70" y="36.363636363636374" as="sourcePoint" />
            <mxPoint x="230" y="38.363636363636374" as="targetPoint" />
          </mxGeometry>
        </mxCell>
        <mxCell id="Sqb_s8LxEvdyysTzYh_L-34" value="" style="group" vertex="1" connectable="0" parent="LKieN_Epe0h2KmxBO4n6-1">
          <mxGeometry x="692" y="648.36" width="90" height="96.64" as="geometry" />
        </mxCell>
        <mxCell id="Sqb_s8LxEvdyysTzYh_L-35" value="" style="ellipse;shape=umlEntity;whiteSpace=wrap;html=1;" vertex="1" parent="Sqb_s8LxEvdyysTzYh_L-34">
          <mxGeometry x="4.166666666666667" width="66.66666666666667" height="67.55417475728156" as="geometry" />
        </mxCell>
        <mxCell id="Sqb_s8LxEvdyysTzYh_L-36" value="钢筋信息" style="text;html=1;align=center;verticalAlign=middle;resizable=0;points=[];autosize=1;" vertex="1" parent="Sqb_s8LxEvdyysTzYh_L-34">
          <mxGeometry x="15" y="75.99844660194175" width="60" height="20" as="geometry" />
        </mxCell>
        <mxCell id="Sqb_s8LxEvdyysTzYh_L-37" value="" style="endArrow=open;endFill=1;endSize=12;html=1;entryX=-0.012;entryY=0.504;entryDx=0;entryDy=0;entryPerimeter=0;" edge="1" parent="LKieN_Epe0h2KmxBO4n6-1" source="Sqb_s8LxEvdyysTzYh_L-3" target="Sqb_s8LxEvdyysTzYh_L-40">
          <mxGeometry width="160" relative="1" as="geometry">
            <mxPoint x="336" y="853.36" as="sourcePoint" />
            <mxPoint x="426" y="670" as="targetPoint" />
          </mxGeometry>
        </mxCell>
        <mxCell id="Sqb_s8LxEvdyysTzYh_L-38" value="" style="endArrow=open;endFill=1;endSize=12;html=1;exitX=0.489;exitY=1.168;exitDx=0;exitDy=0;exitPerimeter=0;" edge="1" parent="LKieN_Epe0h2KmxBO4n6-1" source="Sqb_s8LxEvdyysTzYh_L-6">
          <mxGeometry width="160" relative="1" as="geometry">
            <mxPoint x="771" y="396" as="sourcePoint" />
            <mxPoint x="600" y="660" as="targetPoint" />
          </mxGeometry>
        </mxCell>
        <mxCell id="Sqb_s8LxEvdyysTzYh_L-39" value="" style="group" vertex="1" connectable="0" parent="LKieN_Epe0h2KmxBO4n6-1">
          <mxGeometry x="296" y="750" width="80" height="93.63636363636364" as="geometry" />
        </mxCell>
        <mxCell id="Sqb_s8LxEvdyysTzYh_L-40" value="" style="shape=umlBoundary;whiteSpace=wrap;html=1;" vertex="1" parent="Sqb_s8LxEvdyysTzYh_L-39">
          <mxGeometry width="80" height="65.45454545454545" as="geometry" />
        </mxCell>
        <mxCell id="Sqb_s8LxEvdyysTzYh_L-41" value="捕捉钢筋" style="text;html=1;align=center;verticalAlign=middle;resizable=0;points=[];autosize=1;" vertex="1" parent="Sqb_s8LxEvdyysTzYh_L-39">
          <mxGeometry x="20" y="73.63636363636364" width="60" height="20" as="geometry" />
        </mxCell>
        <mxCell id="Sqb_s8LxEvdyysTzYh_L-42" value="" style="endArrow=open;endFill=1;endSize=12;html=1;exitX=0.988;exitY=0.519;exitDx=0;exitDy=0;exitPerimeter=0;" edge="1" parent="LKieN_Epe0h2KmxBO4n6-1" source="Sqb_s8LxEvdyysTzYh_L-40" target="Sqb_s8LxEvdyysTzYh_L-31">
          <mxGeometry width="160" relative="1" as="geometry">
            <mxPoint x="373.03999999999996" y="686.389090909091" as="sourcePoint" />
            <mxPoint x="445.03999999999996" y="687.9890909090909" as="targetPoint" />
          </mxGeometry>
        </mxCell>
        <mxCell id="Sqb_s8LxEvdyysTzYh_L-43" value="" style="group" vertex="1" connectable="0" parent="LKieN_Epe0h2KmxBO4n6-1">
          <mxGeometry x="310" y="516.8163636363637" width="88" height="97" as="geometry" />
        </mxCell>
        <mxCell id="Sqb_s8LxEvdyysTzYh_L-44" value="" style="ellipse;shape=umlControl;whiteSpace=wrap;html=1;" vertex="1" parent="Sqb_s8LxEvdyysTzYh_L-43">
          <mxGeometry width="66" height="70" as="geometry" />
        </mxCell>
        <mxCell id="Sqb_s8LxEvdyysTzYh_L-45" value="钢筋三维显示处理" style="text;html=1;align=center;verticalAlign=middle;resizable=0;points=[];autosize=1;" vertex="1" parent="Sqb_s8LxEvdyysTzYh_L-43">
          <mxGeometry x="-22" y="77" width="110" height="20" as="geometry" />
        </mxCell>
        <mxCell id="Sqb_s8LxEvdyysTzYh_L-46" value="" style="group" vertex="1" connectable="0" parent="LKieN_Epe0h2KmxBO4n6-1">
          <mxGeometry x="553" y="523.36" width="75" height="93.63636363636364" as="geometry" />
        </mxCell>
        <mxCell id="Sqb_s8LxEvdyysTzYh_L-47" value="" style="ellipse;shape=umlEntity;whiteSpace=wrap;html=1;" vertex="1" parent="Sqb_s8LxEvdyysTzYh_L-46">
          <mxGeometry width="66.66666666666667" height="65.45454545454545" as="geometry" />
        </mxCell>
        <mxCell id="Sqb_s8LxEvdyysTzYh_L-48" value="钢筋显示节点" style="text;html=1;align=center;verticalAlign=middle;resizable=0;points=[];autosize=1;" vertex="1" parent="Sqb_s8LxEvdyysTzYh_L-46">
          <mxGeometry x="-15" y="73.63636363636364" width="90" height="20" as="geometry" />
        </mxCell>
        <mxCell id="Sqb_s8LxEvdyysTzYh_L-49" value="" style="endArrow=open;endFill=1;endSize=12;html=1;" edge="1" parent="LKieN_Epe0h2KmxBO4n6-1" target="Sqb_s8LxEvdyysTzYh_L-47">
          <mxGeometry width="160" relative="1" as="geometry">
            <mxPoint x="380" y="556" as="sourcePoint" />
            <mxPoint x="1077" y="917.36" as="targetPoint" />
          </mxGeometry>
        </mxCell>
        <mxCell id="Sqb_s8LxEvdyysTzYh_L-50" value="" style="endArrow=open;endFill=1;endSize=12;html=1;entryX=0;entryY=0.543;entryDx=0;entryDy=0;entryPerimeter=0;exitX=0.988;exitY=0.789;exitDx=0;exitDy=0;exitPerimeter=0;" edge="1" parent="LKieN_Epe0h2KmxBO4n6-1" source="Sqb_s8LxEvdyysTzYh_L-2" target="Sqb_s8LxEvdyysTzYh_L-44">
          <mxGeometry width="160" relative="1" as="geometry">
            <mxPoint x="226" y="493.3600000000001" as="sourcePoint" />
            <mxPoint x="316.99" y="447.96636363636367" as="targetPoint" />
          </mxGeometry>
        </mxCell>
        <mxCell id="Sqb_s8LxEvdyysTzYh_L-51" value="" style="endArrow=open;endFill=1;endSize=12;html=1;exitX=0.5;exitY=1;exitDx=0;exitDy=0;entryX=0.672;entryY=0.11;entryDx=0;entryDy=0;entryPerimeter=0;" edge="1" parent="LKieN_Epe0h2KmxBO4n6-1" source="Sqb_s8LxEvdyysTzYh_L-47" target="Sqb_s8LxEvdyysTzYh_L-31">
          <mxGeometry width="160" relative="1" as="geometry">
            <mxPoint x="639.9899999999998" y="405.9963636363634" as="sourcePoint" />
            <mxPoint x="578" y="654" as="targetPoint" />
          </mxGeometry>
        </mxCell>
        <mxCell id="Ip_0hYnmCpRujOQGrrIR-0" value="" style="endArrow=open;endFill=1;endSize=12;html=1;" edge="1" parent="LKieN_Epe0h2KmxBO4n6-1" target="Sqb_s8LxEvdyysTzYh_L-31">
          <mxGeometry width="160" relative="1" as="geometry">
            <mxPoint x="380" y="679" as="sourcePoint" />
            <mxPoint x="596.3916511741272" y="703.0779401055127" as="targetPoint" />
          </mxGeometry>
        </mxCell>
        <mxCell id="nLhwYNVRgekETHjp2PFH-0" value="" style="endArrow=open;endFill=1;endSize=12;html=1;entryX=0.712;entryY=0.186;entryDx=0;entryDy=0;entryPerimeter=0;" edge="1" parent="LKieN_Epe0h2KmxBO4n6-1" target="Sqb_s8LxEvdyysTzYh_L-8">
          <mxGeometry width="160" relative="1" as="geometry">
            <mxPoint x="730" y="320" as="sourcePoint" />
            <mxPoint x="390" y="560" as="targetPoint" />
          </mxGeometry>
        </mxCell>
      </root>
    </mxGraphModel>
  </diagram>
  <diagram name="分层" id="w2OV1HzhD8EqbXlN_9E1">
    <mxGraphModel dx="1408" dy="808" grid="1" gridSize="10" guides="1" tooltips="1" connect="1" arrows="1" fold="1" page="1" pageScale="1" pageWidth="827" pageHeight="1169" math="0" shadow="0">
      <root>
        <mxCell id="hnOw6mbMWyLyGAh-56Lh-0" />
        <mxCell id="hnOw6mbMWyLyGAh-56Lh-1" parent="hnOw6mbMWyLyGAh-56Lh-0" />
        <mxCell id="OxymxRHWlBbvGY49c2YY-0" value="" style="rounded=0;whiteSpace=wrap;html=1;labelBackgroundColor=none;fillColor=none;fontSize=11;fontColor=#000000;" vertex="1" parent="hnOw6mbMWyLyGAh-56Lh-1">
          <mxGeometry x="60" y="400" width="730" height="350" as="geometry" />
        </mxCell>
        <mxCell id="hnOw6mbMWyLyGAh-56Lh-2" value="&lt;font style=&quot;font-size: 12px&quot;&gt;动作执行类&lt;/font&gt;" style="rounded=0;whiteSpace=wrap;html=1;labelBackgroundColor=none;fillColor=none;fontSize=11;fontColor=#000000;" vertex="1" parent="hnOw6mbMWyLyGAh-56Lh-1">
          <mxGeometry x="630" y="505" width="120" height="60" as="geometry" />
        </mxCell>
        <mxCell id="hnOw6mbMWyLyGAh-56Lh-3" value="&lt;font style=&quot;font-size: 12px&quot;&gt;对象操作类&lt;/font&gt;" style="rounded=0;whiteSpace=wrap;html=1;labelBackgroundColor=none;fillColor=none;fontSize=11;fontColor=#000000;" vertex="1" parent="hnOw6mbMWyLyGAh-56Lh-1">
          <mxGeometry x="487" y="505" width="120" height="60" as="geometry" />
        </mxCell>
        <mxCell id="hnOw6mbMWyLyGAh-56Lh-4" value="&lt;font style=&quot;font-size: 12px&quot;&gt;基本命令类&lt;/font&gt;" style="rounded=0;whiteSpace=wrap;html=1;labelBackgroundColor=none;fillColor=none;fontSize=11;fontColor=#000000;" vertex="1" parent="hnOw6mbMWyLyGAh-56Lh-1">
          <mxGeometry x="200" y="505" width="120" height="60" as="geometry" />
        </mxCell>
        <mxCell id="hnOw6mbMWyLyGAh-56Lh-5" value="&lt;font style=&quot;font-size: 12px&quot;&gt;钢筋数据类&lt;/font&gt;" style="rounded=0;whiteSpace=wrap;html=1;labelBackgroundColor=none;fillColor=none;fontSize=11;fontColor=#000000;" vertex="1" parent="hnOw6mbMWyLyGAh-56Lh-1">
          <mxGeometry x="630" y="590" width="120" height="60" as="geometry" />
        </mxCell>
        <mxCell id="hnOw6mbMWyLyGAh-56Lh-6" value="&lt;font style=&quot;font-size: 12px&quot;&gt;施工段选择类&lt;/font&gt;" style="rounded=0;whiteSpace=wrap;html=1;labelBackgroundColor=none;fillColor=none;fontSize=11;fontColor=#000000;" vertex="1" parent="hnOw6mbMWyLyGAh-56Lh-1">
          <mxGeometry x="343" y="505" width="120" height="60" as="geometry" />
        </mxCell>
        <mxCell id="hnOw6mbMWyLyGAh-56Lh-7" value="&lt;font style=&quot;font-size: 12px&quot;&gt;模型切割类&lt;/font&gt;" style="rounded=0;whiteSpace=wrap;html=1;labelBackgroundColor=none;fillColor=none;fontSize=11;fontColor=#000000;" vertex="1" parent="hnOw6mbMWyLyGAh-56Lh-1">
          <mxGeometry x="343" y="590" width="120" height="60" as="geometry" />
        </mxCell>
        <mxCell id="hnOw6mbMWyLyGAh-56Lh-8" value="&lt;font style=&quot;font-size: 12px&quot;&gt;图元施工段关系类&lt;/font&gt;" style="rounded=0;whiteSpace=wrap;html=1;labelBackgroundColor=none;fillColor=none;fontSize=11;fontColor=#000000;" vertex="1" parent="hnOw6mbMWyLyGAh-56Lh-1">
          <mxGeometry x="200" y="590" width="120" height="60" as="geometry" />
        </mxCell>
        <mxCell id="RLGu5u0-S610shhjCjk2-1" value="&lt;p style=&quot;margin-top: 0pt ; margin-bottom: 0pt ; margin-left: 0in ; text-align: left ; direction: ltr ; unicode-bidi: embed ; word-break: normal&quot;&gt;&lt;span style=&quot;font-size: 14.0pt ; font-family: &amp;quot;microsoft yahei&amp;quot; ; color: black&quot;&gt;基础设施层&lt;/span&gt;&lt;/p&gt;" style="text;whiteSpace=wrap;html=1;fontSize=11;fontColor=#000000;" vertex="1" parent="hnOw6mbMWyLyGAh-56Lh-1">
          <mxGeometry x="100" y="695" width="100" height="30" as="geometry" />
        </mxCell>
        <mxCell id="g1TxRgN7fub4Q4fHi_UE-0" value="&lt;font style=&quot;font-size: 12px&quot;&gt;通用算法&lt;/font&gt;" style="rounded=0;whiteSpace=wrap;html=1;labelBackgroundColor=none;fillColor=none;fontSize=11;fontColor=#000000;" vertex="1" parent="hnOw6mbMWyLyGAh-56Lh-1">
          <mxGeometry x="203" y="680" width="577" height="60" as="geometry" />
        </mxCell>
        <mxCell id="g1TxRgN7fub4Q4fHi_UE-1" value="&lt;p style=&quot;margin-top: 0pt ; margin-bottom: 0pt ; margin-left: 0in ; text-align: left ; direction: ltr ; unicode-bidi: embed ; word-break: normal&quot;&gt;&lt;span style=&quot;font-size: 14.0pt ; font-family: &amp;#34;microsoft yahei&amp;#34; ; color: black&quot;&gt;领域层&lt;/span&gt;&lt;/p&gt;" style="text;whiteSpace=wrap;html=1;fontSize=11;fontColor=#000000;" vertex="1" parent="hnOw6mbMWyLyGAh-56Lh-1">
          <mxGeometry x="110" y="605" width="70" height="30" as="geometry" />
        </mxCell>
        <mxCell id="g1TxRgN7fub4Q4fHi_UE-2" style="edgeStyle=none;rounded=0;orthogonalLoop=1;jettySize=auto;html=1;exitX=0.5;exitY=1;exitDx=0;exitDy=0;endArrow=open;endFill=0;fontSize=11;fontColor=#000000;" edge="1" parent="hnOw6mbMWyLyGAh-56Lh-1" source="g1TxRgN7fub4Q4fHi_UE-1" target="g1TxRgN7fub4Q4fHi_UE-1">
          <mxGeometry relative="1" as="geometry" />
        </mxCell>
        <mxCell id="g1TxRgN7fub4Q4fHi_UE-3" value="&lt;p style=&quot;margin-top: 0pt ; margin-bottom: 0pt ; margin-left: 0in ; text-align: left ; direction: ltr ; unicode-bidi: embed ; word-break: normal&quot;&gt;&lt;span style=&quot;font-size: 14.0pt ; font-family: &amp;#34;microsoft yahei&amp;#34; ; color: black&quot;&gt;应用层&lt;/span&gt;&lt;/p&gt;" style="text;whiteSpace=wrap;html=1;fontSize=11;fontColor=#000000;" vertex="1" parent="hnOw6mbMWyLyGAh-56Lh-1">
          <mxGeometry x="110" y="520" width="70" height="30" as="geometry" />
        </mxCell>
        <mxCell id="g1TxRgN7fub4Q4fHi_UE-4" value="&lt;p style=&quot;margin-top: 0pt ; margin-bottom: 0pt ; margin-left: 0in ; text-align: left ; direction: ltr ; unicode-bidi: embed ; word-break: normal&quot;&gt;&lt;span style=&quot;font-size: 14.0pt ; font-family: &amp;#34;microsoft yahei&amp;#34; ; color: black&quot;&gt;UI层&lt;/span&gt;&lt;/p&gt;" style="text;whiteSpace=wrap;html=1;fontSize=11;fontColor=#000000;" vertex="1" parent="hnOw6mbMWyLyGAh-56Lh-1">
          <mxGeometry x="110" y="425" width="70" height="30" as="geometry" />
        </mxCell>
        <mxCell id="g1TxRgN7fub4Q4fHi_UE-6" value="&lt;span style=&quot;font-size: 12px&quot;&gt;施工段钢筋&lt;br&gt;三维工具菜单&lt;/span&gt;" style="rounded=0;whiteSpace=wrap;html=1;labelBackgroundColor=none;fillColor=none;fontSize=11;fontColor=#000000;" vertex="1" parent="hnOw6mbMWyLyGAh-56Lh-1">
          <mxGeometry x="200" y="410" width="120" height="60" as="geometry" />
        </mxCell>
        <mxCell id="g1TxRgN7fub4Q4fHi_UE-7" value="&lt;font style=&quot;font-size: 12px&quot;&gt;显示控制面板&lt;/font&gt;" style="rounded=0;whiteSpace=wrap;html=1;labelBackgroundColor=none;fillColor=none;fontSize=11;fontColor=#000000;" vertex="1" parent="hnOw6mbMWyLyGAh-56Lh-1">
          <mxGeometry x="353" y="410" width="120" height="60" as="geometry" />
        </mxCell>
        <mxCell id="xw39dD1qZbrXztO-aYlp-0" value="&lt;font style=&quot;font-size: 12px&quot;&gt;三维显示类&lt;/font&gt;" style="rounded=0;whiteSpace=wrap;html=1;labelBackgroundColor=none;fillColor=none;fontSize=11;fontColor=#000000;" vertex="1" parent="hnOw6mbMWyLyGAh-56Lh-1">
          <mxGeometry x="487" y="590" width="120" height="60" as="geometry" />
        </mxCell>
        <mxCell id="xw39dD1qZbrXztO-aYlp-3" value="" style="endArrow=none;html=1;fontSize=11;fontColor=#000000;" edge="1" parent="hnOw6mbMWyLyGAh-56Lh-1">
          <mxGeometry width="50" height="50" relative="1" as="geometry">
            <mxPoint x="100" y="480" as="sourcePoint" />
            <mxPoint x="791" y="480" as="targetPoint" />
          </mxGeometry>
        </mxCell>
        <mxCell id="xw39dD1qZbrXztO-aYlp-5" value="" style="endArrow=none;html=1;fontSize=11;fontColor=#000000;entryX=1;entryY=0.5;entryDx=0;entryDy=0;" edge="1" parent="hnOw6mbMWyLyGAh-56Lh-1" target="OxymxRHWlBbvGY49c2YY-0">
          <mxGeometry width="50" height="50" relative="1" as="geometry">
            <mxPoint x="100" y="577" as="sourcePoint" />
            <mxPoint x="690" y="580" as="targetPoint" />
          </mxGeometry>
        </mxCell>
        <mxCell id="xw39dD1qZbrXztO-aYlp-6" value="" style="endArrow=none;html=1;fontSize=11;fontColor=#000000;" edge="1" parent="hnOw6mbMWyLyGAh-56Lh-1">
          <mxGeometry width="50" height="50" relative="1" as="geometry">
            <mxPoint x="100" y="665" as="sourcePoint" />
            <mxPoint x="790" y="665" as="targetPoint" />
          </mxGeometry>
        </mxCell>
        <mxCell id="OxymxRHWlBbvGY49c2YY-1" value="" style="endArrow=none;html=1;fontSize=11;fontColor=#000000;" edge="1" parent="hnOw6mbMWyLyGAh-56Lh-1">
          <mxGeometry width="50" height="50" relative="1" as="geometry">
            <mxPoint x="100" y="400" as="sourcePoint" />
            <mxPoint x="100" y="750" as="targetPoint" />
          </mxGeometry>
        </mxCell>
        <mxCell id="OxymxRHWlBbvGY49c2YY-2" value="&lt;p style=&quot;margin-top: 0pt ; margin-bottom: 0pt ; margin-left: 0in ; text-align: left ; direction: ltr ; unicode-bidi: embed ; word-break: normal&quot;&gt;&lt;span style=&quot;font-size: 14.0pt ; font-family: &amp;#34;microsoft yahei&amp;#34; ; color: black&quot;&gt;分层架构&lt;/span&gt;&lt;/p&gt;" style="text;whiteSpace=wrap;html=1;fontSize=11;fontColor=#000000;" vertex="1" parent="hnOw6mbMWyLyGAh-56Lh-1">
          <mxGeometry x="70" y="540" width="30" height="125" as="geometry" />
        </mxCell>
        <mxCell id="3lpc6pTFZbZ-I2Z_lPuh-0" value="&lt;font style=&quot;font-size: 12px&quot;&gt;自服务窗体&lt;/font&gt;" style="rounded=0;whiteSpace=wrap;html=1;labelBackgroundColor=none;fillColor=none;fontSize=11;fontColor=#000000;" vertex="1" parent="hnOw6mbMWyLyGAh-56Lh-1">
          <mxGeometry x="487" y="410" width="120" height="60" as="geometry" />
        </mxCell>
      </root>
    </mxGraphModel>
  </diagram>
  <diagram name="时序图" id="lxpeB2wx7rdzLXMnWNwJ">
    <mxGraphModel dx="1408" dy="808" grid="0" gridSize="10" guides="1" tooltips="1" connect="1" arrows="1" fold="1" page="1" pageScale="1" pageWidth="827" pageHeight="1169" math="0" shadow="0">
      <root>
        <mxCell id="wn_0eQrlzDh4iZsWIPsc-0" />
        <mxCell id="wn_0eQrlzDh4iZsWIPsc-1" parent="wn_0eQrlzDh4iZsWIPsc-0" />
        <mxCell id="wn_0eQrlzDh4iZsWIPsc-2" value="" style="shape=umlLifeline;participant=umlActor;perimeter=lifelinePerimeter;whiteSpace=wrap;html=1;container=1;collapsible=0;recursiveResize=0;verticalAlign=top;spacingTop=36;outlineConnect=0;" parent="wn_0eQrlzDh4iZsWIPsc-1" vertex="1">
          <mxGeometry x="22" y="132" width="20" height="500" as="geometry" />
        </mxCell>
        <mxCell id="wn_0eQrlzDh4iZsWIPsc-3" value="施工段三维命令类" style="shape=umlLifeline;perimeter=lifelinePerimeter;whiteSpace=wrap;html=1;container=1;collapsible=0;recursiveResize=0;outlineConnect=0;" parent="wn_0eQrlzDh4iZsWIPsc-1" vertex="1">
          <mxGeometry x="92" y="132" width="160" height="500" as="geometry" />
        </mxCell>
        <mxCell id="wn_0eQrlzDh4iZsWIPsc-4" value="" style="html=1;points=[];perimeter=orthogonalPerimeter;" parent="wn_0eQrlzDh4iZsWIPsc-3" vertex="1">
          <mxGeometry x="75" y="80" width="10" height="410" as="geometry" />
        </mxCell>
        <mxCell id="wn_0eQrlzDh4iZsWIPsc-5" value="1.触发命令" style="verticalAlign=bottom;startArrow=oval;endArrow=block;startSize=8;" parent="wn_0eQrlzDh4iZsWIPsc-1" source="wn_0eQrlzDh4iZsWIPsc-2" edge="1">
          <mxGeometry relative="1" as="geometry">
            <mxPoint x="107" y="212" as="sourcePoint" />
            <mxPoint x="167" y="213" as="targetPoint" />
          </mxGeometry>
        </mxCell>
        <mxCell id="wn_0eQrlzDh4iZsWIPsc-6" value="施工段图元选择类" style="shape=umlLifeline;perimeter=lifelinePerimeter;whiteSpace=wrap;html=1;container=1;collapsible=0;recursiveResize=0;outlineConnect=0;" parent="wn_0eQrlzDh4iZsWIPsc-1" vertex="1">
          <mxGeometry x="282" y="132" width="110" height="500" as="geometry" />
        </mxCell>
        <mxCell id="wn_0eQrlzDh4iZsWIPsc-7" value="" style="html=1;points=[];perimeter=orthogonalPerimeter;" parent="wn_0eQrlzDh4iZsWIPsc-6" vertex="1">
          <mxGeometry x="50" y="101" width="10" height="50" as="geometry" />
        </mxCell>
        <mxCell id="wn_0eQrlzDh4iZsWIPsc-8" value="钢筋线选择类" style="shape=umlLifeline;perimeter=lifelinePerimeter;whiteSpace=wrap;html=1;container=1;collapsible=0;recursiveResize=0;outlineConnect=0;" parent="wn_0eQrlzDh4iZsWIPsc-1" vertex="1">
          <mxGeometry x="682" y="132" width="100" height="500" as="geometry" />
        </mxCell>
        <mxCell id="wn_0eQrlzDh4iZsWIPsc-9" value="" style="html=1;points=[];perimeter=orthogonalPerimeter;" parent="wn_0eQrlzDh4iZsWIPsc-8" vertex="1">
          <mxGeometry x="45" y="343" width="10" height="53" as="geometry" />
        </mxCell>
        <mxCell id="wn_0eQrlzDh4iZsWIPsc-10" value="" style="html=1;points=[];perimeter=orthogonalPerimeter;" parent="wn_0eQrlzDh4iZsWIPsc-8" vertex="1">
          <mxGeometry x="45" y="430" width="10" height="40" as="geometry" />
        </mxCell>
        <mxCell id="wn_0eQrlzDh4iZsWIPsc-11" value="2.选择施工段图元" style="html=1;verticalAlign=bottom;startArrow=oval;endArrow=block;startSize=8;" parent="wn_0eQrlzDh4iZsWIPsc-1" target="wn_0eQrlzDh4iZsWIPsc-7" edge="1">
          <mxGeometry relative="1" as="geometry">
            <mxPoint x="182" y="233" as="sourcePoint" />
            <Array as="points">
              <mxPoint x="252" y="233" />
            </Array>
          </mxGeometry>
        </mxCell>
        <mxCell id="wn_0eQrlzDh4iZsWIPsc-12" value="模型划分类" style="shape=umlLifeline;perimeter=lifelinePerimeter;whiteSpace=wrap;html=1;container=1;collapsible=0;recursiveResize=0;outlineConnect=0;" parent="wn_0eQrlzDh4iZsWIPsc-1" vertex="1">
          <mxGeometry x="422" y="132" width="110" height="500" as="geometry" />
        </mxCell>
        <mxCell id="wn_0eQrlzDh4iZsWIPsc-13" value="" style="html=1;points=[];perimeter=orthogonalPerimeter;" parent="wn_0eQrlzDh4iZsWIPsc-12" vertex="1">
          <mxGeometry x="50" y="180" width="10" height="51" as="geometry" />
        </mxCell>
        <mxCell id="wn_0eQrlzDh4iZsWIPsc-14" value="4.模型三维显示处理" style="html=1;verticalAlign=bottom;endArrow=block;entryX=0;entryY=0;" parent="wn_0eQrlzDh4iZsWIPsc-1" target="wn_0eQrlzDh4iZsWIPsc-13" edge="1">
          <mxGeometry relative="1" as="geometry">
            <mxPoint x="177" y="312" as="sourcePoint" />
          </mxGeometry>
        </mxCell>
        <mxCell id="wn_0eQrlzDh4iZsWIPsc-15" value="5.显示模型局部三维" style="html=1;verticalAlign=bottom;endArrow=open;dashed=1;endSize=8;exitX=0;exitY=0.95;" parent="wn_0eQrlzDh4iZsWIPsc-1" source="wn_0eQrlzDh4iZsWIPsc-13" edge="1">
          <mxGeometry relative="1" as="geometry">
            <mxPoint x="183" y="360" as="targetPoint" />
          </mxGeometry>
        </mxCell>
        <mxCell id="wn_0eQrlzDh4iZsWIPsc-16" value="三维显示类" style="shape=umlLifeline;perimeter=lifelinePerimeter;whiteSpace=wrap;html=1;container=1;collapsible=0;recursiveResize=0;outlineConnect=0;" parent="wn_0eQrlzDh4iZsWIPsc-1" vertex="1">
          <mxGeometry x="552" y="132" width="110" height="500" as="geometry" />
        </mxCell>
        <mxCell id="wn_0eQrlzDh4iZsWIPsc-17" value="" style="html=1;points=[];perimeter=orthogonalPerimeter;" parent="wn_0eQrlzDh4iZsWIPsc-16" vertex="1">
          <mxGeometry x="50" y="262" width="10" height="218" as="geometry" />
        </mxCell>
        <mxCell id="wn_0eQrlzDh4iZsWIPsc-18" value="3.返回选择信息" style="html=1;verticalAlign=bottom;endArrow=open;dashed=1;endSize=8;exitX=-0.1;exitY=0.988;exitDx=0;exitDy=0;exitPerimeter=0;entryX=1.4;entryY=0.256;entryDx=0;entryDy=0;entryPerimeter=0;" parent="wn_0eQrlzDh4iZsWIPsc-1" edge="1">
          <mxGeometry relative="1" as="geometry">
            <mxPoint x="181" y="283" as="targetPoint" />
            <mxPoint x="329" y="283" as="sourcePoint" />
          </mxGeometry>
        </mxCell>
        <mxCell id="wn_0eQrlzDh4iZsWIPsc-19" value="6.钢筋三维显示处理" style="html=1;verticalAlign=bottom;endArrow=block;entryX=0;entryY=0;" parent="wn_0eQrlzDh4iZsWIPsc-1" target="wn_0eQrlzDh4iZsWIPsc-17" edge="1">
          <mxGeometry relative="1" as="geometry">
            <mxPoint x="181" y="394" as="sourcePoint" />
          </mxGeometry>
        </mxCell>
        <mxCell id="wn_0eQrlzDh4iZsWIPsc-20" value="7.显示钢筋局部三维" style="html=1;verticalAlign=bottom;endArrow=open;dashed=1;endSize=8;entryX=1.1;entryY=0.756;entryDx=0;entryDy=0;entryPerimeter=0;" parent="wn_0eQrlzDh4iZsWIPsc-1" source="wn_0eQrlzDh4iZsWIPsc-17" edge="1">
          <mxGeometry x="0.0476" y="-3" relative="1" as="geometry">
            <mxPoint x="178" y="444.03999999999996" as="targetPoint" />
            <mxPoint as="offset" />
          </mxGeometry>
        </mxCell>
        <mxCell id="wn_0eQrlzDh4iZsWIPsc-21" value="8.捕捉钢筋" style="html=1;verticalAlign=bottom;endArrow=block;entryX=0;entryY=0;" parent="wn_0eQrlzDh4iZsWIPsc-1" target="wn_0eQrlzDh4iZsWIPsc-9" edge="1">
          <mxGeometry relative="1" as="geometry">
            <mxPoint x="178" y="475" as="sourcePoint" />
          </mxGeometry>
        </mxCell>
        <mxCell id="wn_0eQrlzDh4iZsWIPsc-22" value="10.显示钢筋信息" style="html=1;verticalAlign=bottom;endArrow=open;dashed=1;endSize=8;align=center;" parent="wn_0eQrlzDh4iZsWIPsc-1" edge="1" source="I2gAjs-nhKDDi71FLGsM-0">
          <mxGeometry x="0.0476" y="-3" relative="1" as="geometry">
            <mxPoint x="177" y="523" as="targetPoint" />
            <mxPoint as="offset" />
            <mxPoint x="599" y="523" as="sourcePoint" />
          </mxGeometry>
        </mxCell>
        <mxCell id="wn_0eQrlzDh4iZsWIPsc-23" value="14.return" style="html=1;verticalAlign=bottom;endArrow=open;dashed=1;endSize=8;align=center;" parent="wn_0eQrlzDh4iZsWIPsc-1" edge="1">
          <mxGeometry relative="1" as="geometry">
            <mxPoint x="167" y="620" as="sourcePoint" />
            <mxPoint x="31.5" y="620" as="targetPoint" />
          </mxGeometry>
        </mxCell>
        <mxCell id="wn_0eQrlzDh4iZsWIPsc-24" value="9.选中的钢筋图元" style="html=1;verticalAlign=bottom;endArrow=open;dashed=1;endSize=8;align=center;entryX=0.1;entryY=0.453;entryDx=0;entryDy=0;entryPerimeter=0;" parent="wn_0eQrlzDh4iZsWIPsc-1" edge="1">
          <mxGeometry relative="1" as="geometry">
            <mxPoint x="842" y="488.009" as="targetPoint" />
            <mxPoint as="offset" />
            <mxPoint x="740" y="488" as="sourcePoint" />
          </mxGeometry>
        </mxCell>
        <mxCell id="wn_0eQrlzDh4iZsWIPsc-25" value="11.编辑钢筋" style="html=1;verticalAlign=bottom;startArrow=oval;endArrow=block;startSize=8;align=center;" parent="wn_0eQrlzDh4iZsWIPsc-1" source="wn_0eQrlzDh4iZsWIPsc-2" target="wn_0eQrlzDh4iZsWIPsc-10" edge="1">
          <mxGeometry relative="1" as="geometry">
            <mxPoint x="667" y="562" as="sourcePoint" />
          </mxGeometry>
        </mxCell>
        <mxCell id="wn_0eQrlzDh4iZsWIPsc-26" value="13.显示钢筋信息" style="html=1;verticalAlign=bottom;endArrow=open;dashed=1;endSize=8;align=center;exitX=0.1;exitY=0.991;exitDx=0;exitDy=0;exitPerimeter=0;" parent="wn_0eQrlzDh4iZsWIPsc-1" source="wn_0eQrlzDh4iZsWIPsc-17" edge="1">
          <mxGeometry x="0.0476" y="-3" relative="1" as="geometry">
            <mxPoint x="178" y="610" as="targetPoint" />
            <mxPoint as="offset" />
            <mxPoint x="609" y="554" as="sourcePoint" />
          </mxGeometry>
        </mxCell>
        <mxCell id="wn_0eQrlzDh4iZsWIPsc-27" value="12.返回选中的钢筋图元" style="html=1;verticalAlign=bottom;endArrow=open;dashed=1;endSize=8;align=center;exitX=0.1;exitY=1.025;exitDx=0;exitDy=0;exitPerimeter=0;" parent="wn_0eQrlzDh4iZsWIPsc-1" source="wn_0eQrlzDh4iZsWIPsc-10" edge="1">
          <mxGeometry x="0.0476" y="-3" relative="1" as="geometry">
            <mxPoint x="617" y="603" as="targetPoint" />
            <mxPoint as="offset" />
            <mxPoint x="737" y="535.9860000000001" as="sourcePoint" />
          </mxGeometry>
        </mxCell>
        <mxCell id="I2gAjs-nhKDDi71FLGsM-0" value="动作执行类" style="shape=umlLifeline;perimeter=lifelinePerimeter;whiteSpace=wrap;html=1;container=1;collapsible=0;recursiveResize=0;outlineConnect=0;" vertex="1" parent="wn_0eQrlzDh4iZsWIPsc-1">
          <mxGeometry x="796" y="132" width="100" height="500" as="geometry" />
        </mxCell>
        <mxCell id="I2gAjs-nhKDDi71FLGsM-1" value="" style="html=1;points=[];perimeter=orthogonalPerimeter;" vertex="1" parent="I2gAjs-nhKDDi71FLGsM-0">
          <mxGeometry x="45" y="343" width="10" height="53" as="geometry" />
        </mxCell>
      </root>
    </mxGraphModel>
  </diagram>
</mxfile>
